<?xml version="1.0" encoding="UTF-8" standalone="no"?><!DOCTYPE svg PUBLIC "-//W3C//DTD SVG 1.1//EN" "http://www.w3.org/Graphics/SVG/1.1/DTD/svg11.dtd"><svg width="100%" height="100%" viewBox="0 0 48 48" version="1.1" xmlns="http://www.w3.org/2000/svg" xmlns:xlink="http://www.w3.org/1999/xlink" xml:space="preserve" xmlns:serif="http://www.serif.com/" style="fill-rule:evenodd;clip-rule:evenodd;stroke-linejoin:round;stroke-miterlimit:2;"><g><path d="M23.338,44.062c2.954,0 5.355,-0.291 5.355,-0.647c0,-0.357 -2.401,-0.645 -5.355,-0.645c-2.955,0 -5.349,0.289 -5.349,0.646c0,0.357 2.394,0.646 5.349,0.646Z" style="fill:#4c6fa2;"/><path d="M14.136,23.725l1.865,-3.293l-7.205,-8.196c0.553,-0.574 0.442,-1.54 0.269,-2.178c-0.147,-0.54 -0.294,-0.889 -0.571,-0.125c-0.185,0.506 -0.145,1.046 -0.222,1.107c-0.155,0.123 -0.654,-1.075 -1.991,-2.244c-0.014,-0.014 -1.153,-0.122 0.219,1.268c1.491,1.511 -1.717,-1.528 -1.724,-0.059c0,0.007 1.483,1.126 1.642,1.233c-1.168,-0.239 -1.957,-0.989 -1.962,-0.042c-0.001,0.192 2.01,0.869 1.346,0.92c-0.131,0.01 -0.512,-0.153 -0.873,-0.185c-0.083,-0.007 -0.887,0.161 0.296,0.738c0.466,0.227 2.276,0.906 2.334,0.977c1.358,2.241 2.368,4.94 3.763,6.964c0.697,1.01 1.94,2.136 2.814,3.115Z" style="fill:#fbc9a6;"/><path d="M19.133,27.423c2.379,1.893 15.992,1.397 17.172,-2.623c1.93,-6.572 -0.277,-13.447 -3.191,-19.129c-1.304,-2.544 -14.383,-1.152 -14.394,-1.158c-3.215,5.915 -5.809,11.654 1.715,13.402l-1.302,9.508Z" style="fill:#965923;"/><path d="M25.731,30.63c2.378,1.894 9.394,-1.81 10.574,-5.83c1.931,-6.572 -0.277,-13.447 -3.191,-19.129c-1.304,-2.544 -10.8,-1.986 -10.81,-1.991c-3.215,5.915 -4.334,12.871 3.191,14.618l0.236,12.332Z" style="fill:#bb6f2b;"/><path d="M33.224,28.792c0.277,-0.213 0.545,-0.435 0.799,-0.669c0.24,-0.292 0.456,-0.578 0.652,-0.859c0.508,-0.881 0.968,-1.861 1.365,-2.907c0.301,-1.341 0.098,-2.555 -0.424,-3.69c-0.85,-1.848 -2.547,-3.479 -4.262,-5.127c-3.394,-3.263 -6.858,-6.595 -3.815,-11.758l-0.179,-0.003c-3.052,5.267 0.448,8.633 3.879,11.931c1.706,1.64 3.393,3.261 4.232,5.086c1.016,2.212 0.772,4.738 -2.247,7.996Zm-1.683,1.101c0.118,-0.065 0.236,-0.133 0.354,-0.203c2.288,-3.11 2.211,-5.699 1.118,-8.076c-0.798,-1.738 -2.143,-3.359 -3.498,-4.988c-3.096,-3.727 -6.238,-7.51 -2.862,-12.844c-0.096,0.002 -0.195,0.011 -0.292,0.014c-4.31,5.652 -1.394,9.799 1.507,13.921c1.024,1.456 2.045,2.909 2.74,4.42c1.081,2.35 1.366,4.852 -0.381,7.76c-0.034,0.17 -0.071,0.33 -0.111,0.48c2.068,-3.153 1.797,-5.847 0.638,-8.369c-0.701,-1.524 -1.727,-2.983 -2.754,-4.443c-2.762,-3.924 -5.536,-7.87 -1.923,-13.107c-2.714,5.073 0.321,8.727 3.313,12.329c1.347,1.623 2.687,3.233 3.478,4.956c1.094,2.379 1.133,4.983 -1.327,8.15Z" style="fill:#965923;"/><path d="M32.359,24.932l-1.438,-3.501l8.177,-7.226c-0.477,-0.64 -0.246,-1.584 0.007,-2.195c0.212,-0.517 0.402,-0.845 0.582,-0.053c0.119,0.525 0.013,1.056 0.081,1.126c0.138,0.143 0.784,-0.984 2.257,-1.977c0.016,-0.011 1.159,0.025 -0.376,1.232c-1.668,1.313 1.894,-1.3 1.717,0.158c0,0.008 -1.613,0.932 -1.784,1.017c1.188,-0.09 2.065,-0.736 1.952,0.203c-0.023,0.192 -2.102,0.611 -1.451,0.745c0.128,0.026 0.528,-0.087 0.89,-0.074c0.083,0.003 0.859,0.272 -0.386,0.696c-0.492,0.166 -2.372,0.612 -2.439,0.675c-1.629,2.054 -2.969,4.604 -4.607,6.437c-0.818,0.914 -2.193,1.875 -3.182,2.737Z" style="fill:#fbc9a6;"/><path d="M24.627,23.034l-3.503,0.337l-5.071,-3.394l-3.003,4.537l4.702,3.275c-1.156,4.62 -2.41,10.534 -2.619,14.484c4.719,4.91 9.697,-0.692 13.48,0.992c-0.635,-5.801 -0.363,-11.083 -0.648,-15.232l4.818,-2.057l-2.001,-4.93l-6.155,1.988Z" style="fill:#efbe37;"/><path d="M15.332,40.051c-0.095,0.824 -0.19,1.602 -0.226,2.321c4.756,5.154 9.773,-0.726 13.587,1.043c-0.096,-0.913 -0.248,-1.822 -0.308,-2.71c-3.854,-0.398 -8.511,3.889 -13.053,-0.654Z" style="fill:#c29825;"/><path d="M17.468,28.94c-0.238,0.988 -0.478,2.02 -0.707,3.067c1.249,-0.181 2.573,-0.278 3.943,-0.278c2.729,0 5.273,0.386 7.418,1.053c-0.017,-1.076 -0.035,-2.105 -0.072,-3.083c-1.867,-0.78 -4.084,-1.232 -6.464,-1.232c-1.446,0 -2.832,0.167 -4.118,0.473Z" style="fill:#c29825;"/><path d="M24.627,23.034l-3.503,0.337l-0.821,-0.549l0.889,3.123l4.399,-2.629l-0.011,-0.59l-0.953,0.308Z" style="fill:#c29825;"/><path d="M21.934,20.075l2.106,0.199c-0.07,2.323 0.518,2.413 0.63,2.881l-3.129,1.762l-0.544,-1.631c0.767,-0.247 1.521,-0.687 0.937,-3.211Z" style="fill:#fbc9a6;"/><path d="M24.999,18.512l-3.022,-13.307c-0.106,0.138 -1.713,0.032 -2.77,0.507c-2.345,1.057 -2.18,4.452 -4.458,7.079c-2.604,3.005 1.331,9.693 7.297,9.286c0.392,-0.027 3.418,-0.653 3.444,-0.649c-0.041,-0.007 -0.451,-2.911 -0.491,-2.916Z" style="fill:#fbc9a6;"/><path d="M19.17,13.522l-0.021,0.21c-0.065,0.719 -0.145,1.611 -0.802,1.693l-0.125,0.013c-0.492,0.055 -1.082,0.122 -1.209,0.821c-0.028,0.153 0.003,0.288 0.072,0.406c0.116,0.2 0.342,0.346 0.57,0.448c0.221,0.099 0.449,0.158 0.576,0.181c0.078,0.014 0.138,0.012 0.158,0l-0.084,-0.148c-0.009,0.005 -0.005,-0.013 -0.042,-0.021c-0.12,-0.021 -0.332,-0.076 -0.539,-0.168c-0.2,-0.089 -0.395,-0.215 -0.492,-0.378c-0.049,-0.084 -0.071,-0.181 -0.051,-0.29c0.105,-0.574 0.625,-0.632 1.06,-0.681l0.125,-0.014c0.795,-0.098 0.883,-1.065 0.954,-1.846l0.02,-0.21l-0.17,-0.016Z" style="fill:#e79f79;"/><path d="M23.766,15.428l0.285,-0.439l-1.76,-1.633l-0.171,0.778l1.646,1.294Z" style="fill:#5c3f24;"/><path d="M18.013,11.974l0.169,-0.64l-1.827,-0.398l-0.221,0.599l1.879,0.439Z" style="fill:#5c3f24;"/><path d="M21.287,16.586c-0.315,-0.094 -0.485,-0.458 -0.38,-0.812c0.104,-0.356 0.446,-0.568 0.76,-0.474c0.315,0.093 0.486,0.457 0.38,0.812c-0.104,0.355 -0.445,0.567 -0.76,0.474Z" style="fill:#5c3f24;"/><path d="M16.621,14.349c-0.315,-0.094 -0.485,-0.457 -0.38,-0.812c0.105,-0.356 0.446,-0.568 0.76,-0.474c0.316,0.093 0.486,0.457 0.381,0.811c-0.105,0.355 -0.446,0.568 -0.761,0.475Z" style="fill:#5c3f24;"/><path d="M25.194,3.638c-0.775,0.087 -2.865,1.889 -4.743,2.102c-2.896,0.328 -3.118,1.539 -4.03,3.608c-0.187,-2.085 0.147,-4.988 2.534,-5.611c2.17,-0.565 6.24,-0.099 6.239,-0.099Z" style="fill:#965923;"/><path d="M25.933,21.68c-1.024,-0.153 -1.703,-1.273 -1.518,-2.502c0.184,-1.228 1.164,-2.099 2.187,-1.944c1.024,0.154 1.703,1.273 1.519,2.502c-0.185,1.228 -1.165,2.099 -2.188,1.944Z" style="fill:#fbc9a6;"/><path d="M22.108,22.07c0.584,0.055 1.398,-0.127 1.899,-0.314c-0.594,0.477 -1.238,0.97 -1.914,1.255c0.016,-0.295 0.06,-0.484 0.015,-0.941Z" style="fill:#e79f79;"/><path d="M17.752,27.789l-0.242,-0.169l0.931,-3.116l-0.689,3.285Z" style="fill:#c29825;"/><path d="M17.731,18.861l3.465,-0.833c0.271,3.237 -2.858,3.225 -3.465,0.833Z" style="fill:#5d262c;"/><path d="M20.826,19.903c-0.504,0.743 -1.404,0.844 -2.121,0.389c0.491,-0.677 1.36,-0.914 2.121,-0.389Z" style="fill:#f27d73;"/><path d="M17.98,18.801l2.84,-0.682c-0.4,1.552 -1.947,1.691 -2.84,0.682Z" style="fill:#fff6f0;"/></g></svg>