<?xml version="1.0" encoding="UTF-8" standalone="no"?><!DOCTYPE svg PUBLIC "-//W3C//DTD SVG 1.1//EN" "http://www.w3.org/Graphics/SVG/1.1/DTD/svg11.dtd"><svg width="100%" height="100%" viewBox="0 0 48 48" version="1.1" xmlns="http://www.w3.org/2000/svg" xmlns:xlink="http://www.w3.org/1999/xlink" xml:space="preserve" xmlns:serif="http://www.serif.com/" style="fill-rule:evenodd;clip-rule:evenodd;stroke-linejoin:round;stroke-miterlimit:2;"><g><path d="M35.383,24.257l-2.129,-3.401l8.163,-7.678c-0.51,-0.641 -0.303,-1.618 -0.063,-2.252c0.202,-0.538 0.386,-0.88 0.596,-0.073c0.14,0.536 0.047,1.084 0.119,1.154c0.146,0.141 0.774,-1.036 2.254,-2.102c0.016,-0.012 1.191,-0.012 -0.347,1.276c-1.671,1.4 1.903,-1.396 1.768,0.107c-0.001,0.009 -1.626,1.007 -1.799,1.102c1.216,-0.131 2.097,-0.821 2.01,0.146c-0.018,0.197 -2.139,0.693 -1.466,0.811c0.134,0.022 0.539,-0.106 0.911,-0.105c0.086,0 0.891,0.252 -0.375,0.726c-0.499,0.187 -2.414,0.705 -2.48,0.772c-1.608,2.16 -2.902,4.82 -4.525,6.754c-0.811,0.965 -1.649,1.847 -2.637,2.763Z" style="fill:#fbc9a6;"/><path d="M31.537,44.609l-10.532,-2.365l-0.006,-2.393l10.397,-0.113l0.141,4.871Z" style="fill:#fbc9a6;"/><path d="M23.817,23.154l3.893,0.331l5.76,-2.884l2.544,3.966l-4.792,3.416c1.24,4.731 2.595,10.791 2.854,14.843c-2.57,0.746 -8.919,2.702 -14.076,-0.827c0.587,-5.964 0.491,-9.386 0.738,-13.65l-4.971,-2.057l1.538,-4.648l6.512,1.51Z" style="fill:#4c6fa2;"/><path d="M30.832,32.811c0.087,0.162 0.095,0.613 0.062,0.798c-0.023,0.128 -0.058,0.224 -0.115,0.282c-0.102,0.104 -0.167,-0.024 -0.236,-0.053c-0.039,-0.118 -0.077,-0.118 -0.083,-0.314c-0.006,-0.263 0.153,-0.662 0.247,-0.745l0.125,0.032Zm-0.25,-0.623c-0.024,0.041 -0.031,0.086 -0.053,0.119c-0.215,-0.165 -0.273,-0.229 -0.452,-0.434c-0.054,-0.062 -0.372,-0.466 -0.26,-0.625c0.066,-0.092 0.183,-0.06 0.266,0.01c0.179,0.156 0.463,0.754 0.499,0.93Zm0.423,0.527c0.028,-0.021 0.034,-0.024 0.045,-0.07c0.194,-0.015 0.401,0.041 0.577,0.131c0.24,0.124 0.536,0.445 0.265,0.517c-0.209,0.057 -0.513,-0.126 -0.69,-0.317c-0.056,-0.061 -0.171,-0.198 -0.197,-0.261Zm-0.488,-0.227l0.038,0.067c-0.022,0.031 0.024,0.01 -0.028,0.026c-0.141,0.012 -1.421,0.07 -1.256,-0.302c0.148,-0.331 0.988,0.105 1.246,0.209Zm0.621,-0.251l-0.069,0.059c-0.025,-0.049 -0.049,-0.092 -0.064,-0.121c0.065,-0.148 0.181,-0.338 0.265,-0.465l0.191,-0.268c0.076,-0.099 0.277,-0.308 0.391,-0.231c0.261,0.177 -0.599,0.946 -0.714,1.026Zm0.405,1.369c-0.003,0.072 0.021,0.28 -0.199,0.165c-0.256,-0.133 -0.412,-0.578 -0.451,-0.978c0.036,-0.009 0.069,-0.042 0.096,-0.045c0.045,0.036 0.039,0.054 0.081,0.107l0.243,0.26c0.116,0.165 0.202,0.45 0.23,0.491Zm-0.69,-1.55l-0.07,-0.002c-0.091,-0.183 -0.186,-0.799 -0.108,-1.115c0.022,-0.091 0.07,-0.209 0.126,-0.238c0.163,-0.089 0.161,0.498 0.152,0.662c-0.01,0.202 -0.053,0.52 -0.1,0.693Zm0.129,0.084l-0.056,-0.026c-0.019,-0.246 0.134,-0.945 0.293,-1.138c0.207,-0.251 0.421,-0.142 0.05,0.608c-0.049,0.101 -0.087,0.186 -0.14,0.287l-0.147,0.269Zm-0.33,0.605c0.053,-0.01 0.02,-0.001 0.029,0.014l-0.164,0.325c-0.108,0.169 -0.562,0.686 -0.72,0.613c-0.039,-0.175 0.062,-0.314 0.114,-0.37c0.222,-0.244 0.456,-0.446 0.741,-0.582Zm-0.161,-1.538c0.038,0.03 0.108,0.313 0.127,0.4c0.019,0.087 0.097,0.41 0.06,0.491c-0.06,0.006 -0.041,0.032 -0.082,0.054c-0.077,-0.225 -0.251,-0.579 -0.346,-0.726c-0.099,-0.151 -0.067,-0.381 -0.015,-0.425c0.108,-0.095 0.224,0.109 0.256,0.206Zm0.664,1.077c0.032,-0.024 0.061,-0.06 0.09,-0.088c0.033,-0.033 0.056,-0.054 0.088,-0.082c0.049,-0.046 0.123,-0.105 0.179,-0.141c0.135,-0.1 0.394,-0.246 0.566,-0.223c0.057,0.007 0.071,0.015 0.086,0.054c0.078,0.19 -0.399,0.346 -0.475,0.377c-0.07,0.028 -0.571,0.224 -0.601,0.216c-0.001,-0.052 0.042,-0.086 0.067,-0.113Zm1.086,0.275c-0.104,0.209 -0.935,0.111 -1.153,-0.003c0.003,-0.059 0.004,-0.04 0.112,-0.074c0.046,-0.015 0.091,-0.027 0.137,-0.039c0.195,-0.052 0.813,-0.134 0.904,0.116Zm-1.712,-0.212l-0.003,0.092l-0.022,-0.009c-0.138,-0.037 -0.652,-0.277 -0.819,-0.372c-0.042,-0.026 -0.08,-0.047 -0.119,-0.078c-0.051,-0.04 -0.08,-0.062 -0.09,-0.14c0.098,-0.131 0.446,0.053 0.57,0.128c0.113,0.069 0.423,0.292 0.483,0.379Zm0.096,0.339c-0.018,0.073 -0.382,0.269 -0.515,0.395c-0.108,0.103 -0.127,0.126 -0.276,0.175c-0.071,0.024 -0.283,0.087 -0.346,0.005c-0.04,-0.052 -0.018,-0.168 0.005,-0.223c0.152,-0.365 0.874,-0.454 1.094,-0.4l0.038,0.048Zm1.645,6.21c-0.022,0.157 -0.26,0.46 -0.383,0.565c-0.086,0.072 -0.163,0.116 -0.236,0.125c-0.132,0.013 -0.111,-0.107 -0.147,-0.165c0.035,-0.098 0.006,-0.119 0.109,-0.253c0.136,-0.179 0.468,-0.358 0.583,-0.36l0.074,0.088Zm0.151,-0.55c-0.04,0.015 -0.07,0.04 -0.103,0.051c-0.07,-0.228 -0.078,-0.301 -0.1,-0.536c-0.008,-0.07 -0.025,-0.512 0.144,-0.556c0.098,-0.026 0.168,0.059 0.19,0.153c0.05,0.2 -0.063,0.752 -0.131,0.888Zm0.029,0.582c0.032,0.001 0.038,0.002 0.069,-0.021c0.152,0.095 0.276,0.244 0.357,0.401c0.109,0.212 0.156,0.588 -0.083,0.487c-0.184,-0.075 -0.31,-0.362 -0.338,-0.585c-0.009,-0.072 -0.02,-0.227 -0.005,-0.282Zm-0.24,-0.417l-0.006,0.064c-0.033,0.011 0.011,0.02 -0.036,0.004c-0.109,-0.07 -1.085,-0.73 -0.764,-0.888c0.287,-0.138 0.674,0.609 0.806,0.82Zm0.157,1.303c-0.041,0.045 -0.135,0.196 -0.235,0c-0.118,-0.228 0.007,-0.609 0.193,-0.896c0.031,0.015 0.073,0.01 0.095,0.022c0.013,0.049 0,0.058 0.002,0.116l0.039,0.306c-0.002,0.173 -0.092,0.409 -0.094,0.452Zm-0.194,-1.059c0.044,0.023 0.015,0.011 0.015,0.024l-0.299,0.128c-0.168,0.054 -0.781,0.148 -0.859,0.015c0.065,-0.139 0.214,-0.176 0.284,-0.186c0.294,-0.04 0.575,-0.046 0.859,0.019Zm0.708,-1.11c0.012,0.041 -0.088,0.268 -0.121,0.336c-0.033,0.068 -0.149,0.325 -0.22,0.359c-0.047,-0.03 -0.048,-0.002 -0.09,-0.009c0.065,-0.193 0.127,-0.521 0.136,-0.672c0.009,-0.154 0.155,-0.288 0.218,-0.291c0.13,-0.004 0.106,0.195 0.077,0.277Zm0.566,1.853c-0.19,0.081 -0.751,-0.435 -0.851,-0.629c0.034,-0.039 0.025,-0.026 0.123,0.011c0.043,0.015 0.081,0.03 0.122,0.048c0.171,0.072 0.672,0.356 0.606,0.57Zm-1.151,-1.075l-0.052,0.059l-0.011,-0.018c-0.082,-0.099 -0.332,-0.539 -0.404,-0.693c-0.019,-0.041 -0.034,-0.076 -0.046,-0.118c-0.016,-0.054 -0.027,-0.084 0.009,-0.141c0.143,-0.035 0.301,0.279 0.352,0.396c0.045,0.107 0.156,0.425 0.152,0.515Zm-0.111,0.278c-0.053,0.039 -0.427,-0.03 -0.593,-0.019c-0.136,0.01 -0.162,0.014 -0.297,-0.034c-0.067,-0.023 -0.257,-0.097 -0.259,-0.185c-0.001,-0.058 0.078,-0.122 0.124,-0.146c0.308,-0.159 0.89,0.175 1.022,0.331l0.003,0.053Zm1.403,0.077l0.04,0.254c-0.146,-0.004 -0.34,-0.073 -0.386,-0.086c-0.067,-0.019 -0.542,-0.162 -0.56,-0.185c0.027,-0.033 0.077,-0.033 0.11,-0.039c0.037,0.003 0.077,-0.005 0.114,-0.008c0.041,-0.003 0.069,-0.005 0.109,-0.008c0.061,-0.002 0.149,-0.001 0.209,0.005c0.098,0.005 0.242,0.024 0.364,0.067Zm-0.076,-0.455l0.049,0.29c-0.292,0.063 -0.681,0.076 -0.756,0.069l-0.082,0.002c0.007,-0.046 0.013,-0.087 0.017,-0.115c0.128,-0.063 0.316,-0.126 0.445,-0.164l0.286,-0.073l0.041,-0.009Zm-0.068,-0.4l0.048,0.281c-0.065,0.036 -0.144,0.075 -0.239,0.117c-0.09,0.04 -0.164,0.074 -0.258,0.114l-0.253,0.097l-0.028,-0.046c0.103,-0.153 0.486,-0.458 0.73,-0.563Zm1.457,-14.158c0.077,0.144 0.084,0.543 0.054,0.707c-0.019,0.113 -0.05,0.198 -0.101,0.249c-0.09,0.093 -0.148,-0.02 -0.208,-0.046c-0.034,-0.104 -0.069,-0.104 -0.074,-0.279c-0.006,-0.233 0.134,-0.585 0.219,-0.66l0.11,0.029Zm-0.222,-0.551c-0.02,0.036 -0.027,0.077 -0.045,0.105c-0.192,-0.146 -0.243,-0.202 -0.401,-0.383c-0.048,-0.056 -0.33,-0.413 -0.229,-0.554c0.057,-0.081 0.16,-0.053 0.235,0.01c0.158,0.137 0.409,0.667 0.44,0.822Zm-0.057,0.267l0.035,0.058c-0.02,0.028 0.021,0.01 -0.026,0.024c-0.125,0.01 -1.257,0.06 -1.111,-0.268c0.13,-0.292 0.875,0.093 1.102,0.186Zm0.908,0.989c-0.003,0.064 0.019,0.247 -0.176,0.146c-0.226,-0.118 -0.365,-0.512 -0.399,-0.867c0.032,-0.007 0.06,-0.036 0.085,-0.039c0.04,0.032 0.034,0.048 0.072,0.094l0.215,0.231c0.103,0.146 0.179,0.397 0.203,0.435Zm-0.787,-0.762c0.046,-0.01 0.017,0 0.025,0.011l-0.146,0.288c-0.095,0.151 -0.497,0.607 -0.636,0.543c-0.035,-0.155 0.055,-0.279 0.101,-0.329c0.195,-0.215 0.403,-0.394 0.656,-0.513Zm-0.11,-0.353l-0.004,0.082l-0.018,-0.009c-0.123,-0.032 -0.577,-0.245 -0.725,-0.33c-0.038,-0.02 -0.07,-0.04 -0.105,-0.068c-0.046,-0.035 -0.072,-0.054 -0.079,-0.124c0.086,-0.116 0.394,0.048 0.504,0.114c0.099,0.06 0.375,0.258 0.427,0.335Zm-5.771,12.503c0.078,0.144 0.084,0.543 0.055,0.707c-0.02,0.113 -0.05,0.198 -0.101,0.249c-0.09,0.093 -0.148,-0.02 -0.209,-0.046c-0.034,-0.104 -0.068,-0.104 -0.073,-0.279c-0.006,-0.233 0.135,-0.585 0.219,-0.659l0.109,0.028Zm-0.221,-0.551c-0.021,0.036 -0.027,0.077 -0.045,0.106c-0.192,-0.147 -0.243,-0.203 -0.401,-0.384c-0.049,-0.056 -0.33,-0.413 -0.23,-0.554c0.058,-0.081 0.161,-0.053 0.235,0.01c0.159,0.135 0.41,0.667 0.441,0.822Zm0.375,0.467c0.025,-0.019 0.03,-0.021 0.04,-0.062c0.171,-0.013 0.355,0.036 0.511,0.116c0.212,0.108 0.474,0.393 0.234,0.458c-0.185,0.049 -0.453,-0.112 -0.61,-0.282c-0.05,-0.054 -0.153,-0.174 -0.175,-0.23Zm-0.433,-0.201l0.035,0.059c-0.02,0.028 0.021,0.008 -0.025,0.024c-0.125,0.009 -1.257,0.06 -1.111,-0.269c0.13,-0.291 0.874,0.092 1.101,0.186Zm0.551,-0.223l-0.061,0.052c-0.021,-0.042 -0.043,-0.082 -0.058,-0.106c0.059,-0.131 0.162,-0.3 0.236,-0.41l0.17,-0.238c0.065,-0.089 0.243,-0.274 0.344,-0.206c0.232,0.157 -0.53,0.837 -0.631,0.908Zm0.357,1.213c-0.001,0.064 0.019,0.247 -0.175,0.146c-0.226,-0.119 -0.365,-0.512 -0.399,-0.867c0.032,-0.007 0.06,-0.036 0.085,-0.039c0.039,0.032 0.034,0.048 0.071,0.094l0.216,0.231c0.103,0.146 0.179,0.397 0.202,0.435Zm-0.609,-1.373l-0.063,-0.001c-0.08,-0.162 -0.164,-0.708 -0.095,-0.987c0.019,-0.08 0.062,-0.185 0.111,-0.211c0.146,-0.077 0.143,0.441 0.135,0.586c-0.009,0.177 -0.047,0.461 -0.088,0.613Zm0.114,0.074l-0.05,-0.021c-0.017,-0.219 0.119,-0.837 0.26,-1.008c0.182,-0.223 0.371,-0.126 0.044,0.538c-0.044,0.09 -0.078,0.164 -0.124,0.254l-0.13,0.237Zm-0.292,0.537c0.047,-0.009 0.017,-0.002 0.025,0.011l-0.146,0.288c-0.094,0.151 -0.497,0.607 -0.636,0.543c-0.035,-0.155 0.055,-0.278 0.101,-0.329c0.196,-0.215 0.404,-0.394 0.656,-0.513Zm-0.143,-1.361c0.035,0.026 0.096,0.277 0.113,0.354c0.017,0.076 0.085,0.364 0.052,0.434c-0.052,0.005 -0.035,0.028 -0.072,0.049c-0.069,-0.201 -0.222,-0.514 -0.307,-0.645c-0.087,-0.133 -0.059,-0.336 -0.012,-0.376c0.094,-0.083 0.198,0.097 0.226,0.184Zm0.588,0.952c0.028,-0.021 0.054,-0.052 0.079,-0.077c0.03,-0.029 0.05,-0.049 0.079,-0.075c0.043,-0.039 0.109,-0.092 0.158,-0.123c0.119,-0.088 0.349,-0.218 0.501,-0.198c0.05,0.006 0.062,0.014 0.076,0.049c0.069,0.167 -0.354,0.306 -0.42,0.333c-0.062,0.025 -0.505,0.198 -0.532,0.191c-0.001,-0.045 0.037,-0.077 0.059,-0.1Zm0.961,0.243c-0.092,0.184 -0.827,0.098 -1.02,-0.002c0.002,-0.052 0.004,-0.035 0.098,-0.065c0.042,-0.013 0.081,-0.025 0.122,-0.036c0.173,-0.045 0.719,-0.117 0.8,0.103Zm-1.515,-0.187l-0.004,0.082l-0.018,-0.009c-0.123,-0.032 -0.577,-0.244 -0.726,-0.33c-0.037,-0.021 -0.07,-0.04 -0.105,-0.068c-0.045,-0.035 -0.071,-0.054 -0.079,-0.123c0.087,-0.117 0.396,0.046 0.504,0.113c0.099,0.061 0.375,0.258 0.428,0.335Zm0.084,0.3c-0.015,0.065 -0.338,0.238 -0.455,0.349c-0.095,0.091 -0.113,0.112 -0.243,0.156c-0.064,0.021 -0.252,0.076 -0.307,0.005c-0.036,-0.048 -0.016,-0.151 0.005,-0.198c0.134,-0.322 0.773,-0.402 0.966,-0.354l0.034,0.042Zm-7.262,-10.355c0.088,0.162 0.095,0.613 0.062,0.798c-0.023,0.128 -0.058,0.225 -0.115,0.282c-0.102,0.105 -0.167,-0.024 -0.236,-0.052c-0.039,-0.118 -0.077,-0.118 -0.083,-0.314c-0.006,-0.263 0.152,-0.662 0.248,-0.745l0.124,0.031Zm-0.251,-0.623c-0.023,0.041 -0.03,0.087 -0.052,0.12c-0.216,-0.166 -0.272,-0.23 -0.452,-0.435c-0.055,-0.062 -0.372,-0.465 -0.259,-0.624c0.065,-0.092 0.182,-0.061 0.265,0.01c0.18,0.155 0.463,0.754 0.498,0.929Zm0.425,0.528c0.028,-0.021 0.033,-0.025 0.044,-0.07c0.194,-0.015 0.401,0.04 0.577,0.131c0.24,0.124 0.536,0.445 0.265,0.516c-0.209,0.057 -0.512,-0.126 -0.69,-0.316c-0.055,-0.061 -0.171,-0.199 -0.196,-0.261Zm-0.49,-0.227l0.039,0.066c-0.022,0.032 0.023,0.01 -0.028,0.027c-0.141,0.011 -1.421,0.07 -1.256,-0.302c0.148,-0.331 0.989,0.105 1.245,0.209Zm0.622,-0.252l-0.069,0.059c-0.025,-0.049 -0.049,-0.092 -0.065,-0.121c0.067,-0.148 0.182,-0.338 0.266,-0.464l0.192,-0.269c0.075,-0.099 0.275,-0.308 0.39,-0.231c0.262,0.177 -0.6,0.947 -0.714,1.026Zm0.405,1.37c-0.003,0.071 0.021,0.279 -0.199,0.164c-0.256,-0.133 -0.413,-0.577 -0.451,-0.978c0.036,-0.008 0.069,-0.041 0.097,-0.044c0.044,0.036 0.038,0.054 0.081,0.106l0.242,0.261c0.117,0.165 0.203,0.449 0.23,0.491Zm-0.69,-1.55l-0.07,-0.002c-0.091,-0.183 -0.187,-0.8 -0.108,-1.116c0.022,-0.09 0.071,-0.209 0.126,-0.238c0.164,-0.088 0.161,0.499 0.152,0.662c-0.01,0.202 -0.053,0.52 -0.1,0.694Zm0.129,0.083l-0.056,-0.025c-0.019,-0.247 0.135,-0.945 0.293,-1.138c0.207,-0.252 0.421,-0.143 0.051,0.608c-0.05,0.101 -0.088,0.185 -0.141,0.287l-0.147,0.268Zm-0.329,0.605c0.052,-0.009 0.019,-0.001 0.028,0.015l-0.165,0.325c-0.106,0.169 -0.561,0.685 -0.719,0.613c-0.039,-0.176 0.062,-0.314 0.114,-0.371c0.222,-0.244 0.456,-0.446 0.742,-0.582Zm-0.162,-1.537c0.038,0.031 0.108,0.313 0.127,0.4c0.019,0.087 0.097,0.41 0.06,0.49c-0.06,0.006 -0.041,0.033 -0.082,0.055c-0.078,-0.226 -0.251,-0.58 -0.346,-0.727c-0.099,-0.151 -0.067,-0.38 -0.015,-0.425c0.108,-0.095 0.224,0.11 0.256,0.207Zm0.664,1.077c0.032,-0.024 0.061,-0.061 0.09,-0.089c0.033,-0.032 0.056,-0.054 0.088,-0.082c0.049,-0.046 0.124,-0.106 0.179,-0.141c0.135,-0.1 0.395,-0.246 0.566,-0.223c0.056,0.007 0.071,0.015 0.086,0.054c0.079,0.19 -0.399,0.346 -0.474,0.377c-0.07,0.028 -0.572,0.225 -0.602,0.217c0,-0.053 0.042,-0.087 0.067,-0.113Zm1.086,0.275c-0.104,0.208 -0.935,0.11 -1.153,-0.003c0.003,-0.059 0.005,-0.041 0.112,-0.074c0.046,-0.016 0.09,-0.028 0.137,-0.039c0.196,-0.053 0.814,-0.134 0.904,0.116Zm-1.712,-0.212l-0.004,0.092l-0.021,-0.009c-0.138,-0.038 -0.652,-0.277 -0.82,-0.373c-0.042,-0.025 -0.079,-0.046 -0.119,-0.078c-0.05,-0.04 -0.08,-0.061 -0.088,-0.14c0.096,-0.131 0.446,0.053 0.569,0.129c0.113,0.068 0.424,0.292 0.483,0.379Zm0.096,0.338c-0.018,0.074 -0.383,0.27 -0.514,0.395c-0.108,0.104 -0.129,0.127 -0.277,0.176c-0.071,0.024 -0.283,0.087 -0.345,0.005c-0.041,-0.053 -0.018,-0.169 0.005,-0.223c0.151,-0.365 0.873,-0.454 1.092,-0.4l0.039,0.047Zm1.646,6.211c-0.022,0.156 -0.261,0.459 -0.385,0.565c-0.085,0.071 -0.162,0.116 -0.236,0.124c-0.131,0.013 -0.11,-0.108 -0.146,-0.164c0.035,-0.098 0.007,-0.12 0.109,-0.254c0.136,-0.179 0.468,-0.357 0.583,-0.359l0.075,0.088Zm0.15,-0.55c-0.04,0.015 -0.069,0.04 -0.103,0.051c-0.07,-0.228 -0.078,-0.302 -0.1,-0.536c-0.008,-0.071 -0.024,-0.512 0.145,-0.556c0.098,-0.026 0.167,0.059 0.19,0.152c0.049,0.2 -0.064,0.753 -0.132,0.889Zm0.029,0.581c0.032,0.001 0.038,0.002 0.07,-0.021c0.151,0.095 0.275,0.245 0.355,0.402c0.111,0.212 0.157,0.587 -0.083,0.487c-0.183,-0.076 -0.309,-0.363 -0.337,-0.586c-0.009,-0.072 -0.02,-0.226 -0.005,-0.282Zm-0.24,-0.416l-0.006,0.064c-0.034,0.01 0.012,0.02 -0.036,0.003c-0.109,-0.07 -1.085,-0.729 -0.763,-0.887c0.286,-0.139 0.673,0.609 0.805,0.82Zm0.595,0.171l-0.083,0.002c0.009,-0.046 0.014,-0.088 0.018,-0.115c0.128,-0.064 0.316,-0.127 0.445,-0.164l0.286,-0.073c0.11,-0.027 0.37,-0.055 0.413,0.058c0.097,0.26 -0.951,0.302 -1.079,0.292Zm-0.438,1.131c-0.041,0.046 -0.134,0.197 -0.235,0c-0.117,-0.228 0.006,-0.609 0.193,-0.896c0.031,0.015 0.073,0.01 0.095,0.022c0.013,0.049 0,0.059 0.003,0.116l0.038,0.307c-0.002,0.172 -0.092,0.408 -0.094,0.451Zm0.325,-1.405l-0.051,-0.043c0.032,-0.169 0.292,-0.63 0.52,-0.798c0.066,-0.049 0.165,-0.1 0.222,-0.09c0.168,0.031 -0.15,0.419 -0.244,0.524c-0.116,0.128 -0.32,0.317 -0.447,0.407Zm0.051,0.124l-0.028,-0.047c0.118,-0.175 0.608,-0.554 0.829,-0.597c0.287,-0.054 0.386,0.135 -0.291,0.433c-0.091,0.04 -0.164,0.074 -0.258,0.113l-0.252,0.098Zm-0.57,0.223c0.044,0.022 0.015,0.01 0.015,0.025l-0.298,0.126c-0.169,0.054 -0.782,0.148 -0.86,0.015c0.065,-0.138 0.215,-0.175 0.283,-0.184c0.296,-0.042 0.577,-0.047 0.86,0.018Zm0.708,-1.111c0.013,0.042 -0.088,0.269 -0.121,0.336c-0.033,0.069 -0.149,0.325 -0.22,0.359c-0.047,-0.029 -0.047,-0.001 -0.09,-0.008c0.065,-0.193 0.127,-0.522 0.136,-0.672c0.008,-0.154 0.155,-0.289 0.218,-0.292c0.13,-0.003 0.107,0.195 0.077,0.277Zm-0.089,1.078c0.037,0.002 0.076,-0.005 0.114,-0.009c0.042,-0.002 0.07,-0.005 0.109,-0.007c0.061,-0.003 0.149,-0.001 0.209,0.005c0.153,0.007 0.423,0.051 0.538,0.161c0.037,0.035 0.042,0.048 0.033,0.082c-0.044,0.17 -0.481,0.012 -0.553,-0.008c-0.066,-0.02 -0.542,-0.163 -0.56,-0.185c0.028,-0.034 0.078,-0.034 0.11,-0.039Zm0.655,0.776c-0.19,0.081 -0.751,-0.436 -0.85,-0.631c0.033,-0.038 0.024,-0.024 0.122,0.013c0.043,0.015 0.081,0.03 0.122,0.047c0.171,0.073 0.672,0.356 0.606,0.571Zm-1.151,-1.075l-0.052,0.059l-0.011,-0.018c-0.082,-0.1 -0.331,-0.539 -0.404,-0.694c-0.019,-0.04 -0.034,-0.075 -0.046,-0.117c-0.016,-0.054 -0.027,-0.084 0.01,-0.141c0.141,-0.035 0.299,0.278 0.351,0.396c0.045,0.106 0.155,0.425 0.152,0.515Zm-0.111,0.278c-0.053,0.038 -0.427,-0.031 -0.593,-0.019c-0.135,0.01 -0.162,0.013 -0.297,-0.035c-0.066,-0.022 -0.256,-0.096 -0.259,-0.185c-0.001,-0.057 0.078,-0.121 0.124,-0.146c0.308,-0.158 0.889,0.175 1.022,0.331l0.003,0.054Zm1.287,6.908c-0.041,0.123 -0.269,0.346 -0.381,0.42c-0.077,0.049 -0.142,0.078 -0.2,0.077c-0.103,-0.003 -0.068,-0.097 -0.086,-0.148c0.041,-0.075 0.023,-0.095 0.121,-0.193c0.131,-0.131 0.413,-0.243 0.501,-0.233l0.045,0.077Zm0.198,-0.429c-0.032,0.009 -0.059,0.026 -0.086,0.031c-0.02,-0.19 -0.015,-0.25 0.005,-0.441c0.005,-0.058 0.059,-0.417 0.195,-0.436c0.079,-0.011 0.119,0.064 0.122,0.141c0.008,0.167 -0.162,0.602 -0.236,0.705Zm-0.065,0.474c0.023,0.003 0.027,0.004 0.056,-0.012c0.102,0.092 0.174,0.226 0.212,0.361c0.053,0.182 0.032,0.489 -0.137,0.385c-0.13,-0.08 -0.182,-0.324 -0.17,-0.508c0.004,-0.058 0.018,-0.184 0.039,-0.226Zm-0.12,-0.361l-0.015,0.052c-0.027,0.004 0.005,0.017 -0.028,-0.003c-0.074,-0.066 -0.722,-0.695 -0.452,-0.79c0.241,-0.084 0.424,0.557 0.495,0.741Zm0.43,0.197l-0.065,-0.007c0.014,-0.036 0.025,-0.07 0.031,-0.092c0.108,-0.037 0.261,-0.07 0.367,-0.087l0.231,-0.032c0.087,-0.01 0.292,-0.007 0.307,0.088c0.036,0.22 -0.775,0.15 -0.871,0.13Zm-0.509,0.87c-0.038,0.034 -0.133,0.146 -0.18,-0.021c-0.055,-0.197 0.097,-0.493 0.285,-0.705c0.021,0.013 0.054,0.015 0.068,0.028c0.004,0.039 -0.008,0.046 -0.015,0.092l-0.017,0.251c-0.028,0.14 -0.132,0.321 -0.141,0.355Zm0.463,-1.105l-0.033,-0.036c0.051,-0.134 0.321,-0.482 0.521,-0.594c0.057,-0.032 0.141,-0.065 0.183,-0.05c0.124,0.041 -0.178,0.323 -0.267,0.398c-0.108,0.092 -0.293,0.223 -0.404,0.282Zm0.019,0.108l-0.013,-0.041c0.116,-0.129 0.55,-0.387 0.726,-0.4c0.229,-0.015 0.276,0.148 -0.288,0.32c-0.077,0.024 -0.138,0.044 -0.215,0.067l-0.21,0.054Zm-0.47,0.123c0.03,0.023 0.01,0.01 0.007,0.022l-0.247,0.072c-0.138,0.028 -0.623,0.044 -0.662,-0.072c0.071,-0.105 0.192,-0.12 0.246,-0.122c0.232,-0.003 0.448,0.02 0.656,0.1Zm0.712,-0.826c0.002,0.034 -0.109,0.207 -0.144,0.259c-0.035,0.051 -0.164,0.248 -0.223,0.267c-0.032,-0.027 -0.036,-0.005 -0.068,-0.015c0.079,-0.148 0.177,-0.409 0.206,-0.529c0.03,-0.124 0.163,-0.218 0.212,-0.213c0.1,0.01 0.051,0.167 0.017,0.231Zm-0.232,0.861c0.028,0.005 0.06,0.003 0.089,0.004c0.031,0.001 0.054,0.002 0.085,0.005c0.047,0.004 0.114,0.012 0.159,0.024c0.117,0.021 0.317,0.083 0.388,0.183c0.023,0.033 0.026,0.044 0.014,0.07c-0.061,0.132 -0.371,-0.037 -0.424,-0.062c-0.048,-0.021 -0.391,-0.183 -0.401,-0.203c0.026,-0.026 0.064,-0.021 0.09,-0.021Zm0.384,0.691c-0.157,0.047 -0.508,-0.426 -0.556,-0.593c0.031,-0.028 0.023,-0.017 0.092,0.022c0.03,0.016 0.058,0.032 0.087,0.05c0.12,0.077 0.461,0.354 0.377,0.521Zm-0.719,-0.981l-0.049,0.042l-0.006,-0.015c-0.048,-0.09 -0.173,-0.468 -0.204,-0.6c-0.008,-0.034 -0.015,-0.065 -0.018,-0.1c-0.004,-0.045 -0.007,-0.07 0.028,-0.113c0.115,-0.014 0.189,0.254 0.21,0.355c0.02,0.091 0.055,0.357 0.039,0.431Zm-0.128,0.212c-0.046,0.027 -0.323,-0.065 -0.451,-0.073c-0.106,-0.005 -0.127,-0.005 -0.224,-0.056c-0.047,-0.026 -0.181,-0.103 -0.17,-0.175c0.009,-0.047 0.078,-0.091 0.118,-0.107c0.26,-0.097 0.655,0.23 0.734,0.369l-0.007,0.042Zm6.074,-11.925c-0.04,0.123 -0.268,0.344 -0.38,0.418c-0.076,0.049 -0.142,0.077 -0.199,0.077c-0.104,-0.003 -0.069,-0.098 -0.088,-0.148c0.042,-0.075 0.024,-0.096 0.122,-0.194c0.132,-0.13 0.414,-0.242 0.502,-0.233l0.043,0.08Zm0.2,-0.431c-0.033,0.009 -0.059,0.026 -0.087,0.031c-0.019,-0.19 -0.014,-0.25 0.004,-0.441c0.006,-0.059 0.06,-0.417 0.196,-0.436c0.079,-0.01 0.119,0.064 0.122,0.141c0.008,0.167 -0.163,0.603 -0.235,0.705Zm-0.066,0.474c0.024,0.003 0.028,0.006 0.056,-0.01c0.103,0.09 0.173,0.225 0.213,0.359c0.052,0.182 0.031,0.489 -0.138,0.385c-0.13,-0.08 -0.183,-0.324 -0.17,-0.508c0.004,-0.058 0.018,-0.184 0.039,-0.226Zm-0.121,-0.362l-0.015,0.053c-0.027,0.004 0.007,0.017 -0.027,-0.003c-0.074,-0.066 -0.723,-0.696 -0.452,-0.79c0.241,-0.085 0.424,0.558 0.494,0.74Zm0.431,0.198l-0.065,-0.007c0.014,-0.036 0.024,-0.07 0.031,-0.092c0.109,-0.037 0.262,-0.07 0.367,-0.088l0.231,-0.031c0.088,-0.009 0.292,-0.007 0.307,0.088c0.036,0.22 -0.775,0.15 -0.871,0.13Zm-0.509,0.87c-0.038,0.033 -0.133,0.146 -0.18,-0.021c-0.055,-0.197 0.098,-0.493 0.284,-0.705c0.022,0.013 0.055,0.015 0.069,0.027c0.003,0.04 -0.008,0.047 -0.015,0.093l-0.017,0.25c-0.027,0.14 -0.132,0.322 -0.141,0.356Zm0.463,-1.103l-0.032,-0.038c0.049,-0.134 0.319,-0.481 0.519,-0.595c0.058,-0.032 0.142,-0.064 0.183,-0.049c0.125,0.041 -0.178,0.323 -0.265,0.397c-0.109,0.092 -0.293,0.224 -0.405,0.285Zm0.019,0.105l-0.014,-0.04c0.118,-0.129 0.551,-0.388 0.727,-0.4c0.229,-0.015 0.276,0.147 -0.288,0.32c-0.076,0.023 -0.137,0.044 -0.215,0.066l-0.21,0.054Zm-0.47,0.125c0.031,0.022 0.01,0.009 0.008,0.021l-0.247,0.072c-0.139,0.028 -0.624,0.043 -0.663,-0.072c0.071,-0.105 0.192,-0.12 0.246,-0.12c0.232,-0.005 0.449,0.018 0.656,0.099Zm0.712,-0.827c0.003,0.035 -0.108,0.207 -0.144,0.259c-0.035,0.051 -0.164,0.248 -0.223,0.267c-0.031,-0.027 -0.036,-0.005 -0.067,-0.014c0.078,-0.149 0.176,-0.41 0.205,-0.531c0.031,-0.123 0.163,-0.217 0.212,-0.212c0.1,0.01 0.052,0.168 0.017,0.231Zm-0.232,0.861c0.028,0.005 0.06,0.003 0.089,0.004c0.032,0.001 0.055,0.002 0.085,0.005c0.047,0.004 0.114,0.012 0.159,0.024c0.116,0.021 0.317,0.085 0.388,0.183c0.024,0.033 0.026,0.043 0.014,0.07c-0.06,0.132 -0.371,-0.038 -0.424,-0.062c-0.048,-0.021 -0.391,-0.183 -0.402,-0.204c0.027,-0.025 0.065,-0.02 0.091,-0.02Zm0.384,0.692c-0.157,0.046 -0.508,-0.427 -0.556,-0.594c0.032,-0.028 0.023,-0.018 0.092,0.022c0.031,0.016 0.058,0.032 0.087,0.05c0.12,0.077 0.461,0.354 0.377,0.522Zm-0.719,-0.982l-0.049,0.042l-0.005,-0.015c-0.048,-0.088 -0.174,-0.468 -0.206,-0.601c-0.007,-0.033 -0.014,-0.064 -0.017,-0.099c-0.004,-0.045 -0.007,-0.07 0.029,-0.113c0.114,-0.014 0.188,0.255 0.21,0.355c0.019,0.09 0.054,0.357 0.038,0.431Zm-0.127,0.213c-0.047,0.026 -0.324,-0.066 -0.452,-0.074c-0.105,-0.005 -0.127,-0.005 -0.223,-0.056c-0.047,-0.026 -0.182,-0.104 -0.17,-0.175c0.007,-0.047 0.078,-0.091 0.117,-0.107c0.261,-0.098 0.655,0.23 0.734,0.368l-0.006,0.044Zm-2.785,13.012c-0.041,0.123 -0.269,0.346 -0.38,0.417c-0.077,0.05 -0.143,0.08 -0.201,0.078c-0.103,-0.003 -0.068,-0.096 -0.087,-0.147c0.042,-0.076 0.023,-0.095 0.122,-0.194c0.132,-0.131 0.413,-0.242 0.502,-0.233l0.044,0.079Zm0.199,-0.43c-0.033,0.009 -0.06,0.027 -0.087,0.032c-0.02,-0.192 -0.015,-0.251 0.004,-0.443c0.006,-0.057 0.06,-0.416 0.196,-0.435c0.079,-0.011 0.119,0.065 0.122,0.141c0.008,0.168 -0.163,0.602 -0.235,0.705Zm-0.066,0.473c0.023,0.005 0.028,0.005 0.056,-0.01c0.102,0.09 0.174,0.226 0.212,0.359c0.053,0.182 0.031,0.49 -0.137,0.385c-0.13,-0.079 -0.182,-0.323 -0.17,-0.507c0.004,-0.058 0.018,-0.184 0.039,-0.227Zm-0.121,-0.361l-0.015,0.053c-0.026,0.003 0.007,0.016 -0.027,-0.002c-0.074,-0.067 -0.723,-0.697 -0.452,-0.791c0.241,-0.084 0.424,0.558 0.494,0.74Zm0.431,0.197l-0.065,-0.005c0.014,-0.037 0.024,-0.071 0.031,-0.092c0.108,-0.038 0.262,-0.071 0.367,-0.088l0.231,-0.032c0.087,-0.011 0.292,-0.008 0.307,0.088c0.036,0.221 -0.775,0.15 -0.871,0.129Zm-0.509,0.87c-0.038,0.035 -0.133,0.146 -0.18,-0.022c-0.055,-0.195 0.098,-0.491 0.284,-0.704c0.022,0.014 0.054,0.015 0.069,0.028c0.004,0.04 -0.008,0.046 -0.015,0.093l-0.017,0.251c-0.028,0.138 -0.132,0.32 -0.141,0.354Zm0.463,-1.103l-0.033,-0.037c0.05,-0.135 0.32,-0.482 0.521,-0.594c0.057,-0.033 0.141,-0.066 0.182,-0.051c0.125,0.042 -0.178,0.324 -0.265,0.398c-0.109,0.092 -0.294,0.224 -0.405,0.284Zm0.019,0.107l-0.014,-0.041c0.118,-0.13 0.551,-0.387 0.726,-0.4c0.23,-0.015 0.277,0.147 -0.287,0.32c-0.077,0.024 -0.138,0.044 -0.215,0.067l-0.21,0.054Zm-0.47,0.124c0.03,0.022 0.01,0.009 0.008,0.02l-0.248,0.074c-0.138,0.027 -0.623,0.042 -0.662,-0.074c0.071,-0.105 0.192,-0.12 0.246,-0.121c0.232,-0.003 0.448,0.019 0.656,0.101Zm0.712,-0.827c0.003,0.034 -0.108,0.208 -0.144,0.258c-0.035,0.052 -0.164,0.25 -0.223,0.268c-0.031,-0.028 -0.036,-0.005 -0.068,-0.015c0.079,-0.149 0.177,-0.409 0.206,-0.53c0.03,-0.123 0.163,-0.218 0.212,-0.213c0.1,0.01 0.052,0.168 0.017,0.232Zm-0.232,0.861c0.028,0.006 0.06,0.003 0.089,0.004c0.032,0.002 0.054,0.002 0.085,0.005c0.047,0.003 0.114,0.013 0.159,0.024c0.116,0.022 0.317,0.083 0.388,0.182c0.023,0.035 0.026,0.045 0.013,0.071c-0.059,0.132 -0.37,-0.036 -0.423,-0.062c-0.048,-0.021 -0.391,-0.184 -0.401,-0.204c0.026,-0.025 0.064,-0.02 0.09,-0.02Zm0.384,0.691c-0.157,0.047 -0.508,-0.426 -0.556,-0.592c0.032,-0.028 0.022,-0.018 0.092,0.021c0.031,0.017 0.058,0.033 0.087,0.05c0.12,0.077 0.46,0.354 0.377,0.521Zm-0.719,-0.982l-0.049,0.043l-0.006,-0.015c-0.048,-0.089 -0.173,-0.469 -0.204,-0.6c-0.008,-0.035 -0.015,-0.064 -0.018,-0.1c-0.004,-0.045 -0.007,-0.071 0.028,-0.113c0.115,-0.014 0.189,0.254 0.21,0.355c0.02,0.091 0.055,0.358 0.039,0.43Zm-0.127,0.213c-0.047,0.026 -0.324,-0.065 -0.452,-0.073c-0.105,-0.006 -0.127,-0.005 -0.224,-0.056c-0.047,-0.025 -0.181,-0.104 -0.169,-0.176c0.008,-0.046 0.078,-0.09 0.117,-0.105c0.26,-0.098 0.655,0.228 0.734,0.367l-0.006,0.043Zm-5.882,3.333c-0.106,0.075 -0.421,0.121 -0.553,0.114c-0.091,-0.005 -0.161,-0.021 -0.208,-0.055c-0.082,-0.063 0.003,-0.12 0.016,-0.171c0.079,-0.037 0.075,-0.064 0.212,-0.085c0.184,-0.029 0.477,0.046 0.544,0.107l-0.011,0.09Zm0.414,-0.231c-0.032,-0.012 -0.065,-0.014 -0.09,-0.027c0.097,-0.165 0.137,-0.211 0.264,-0.354c0.039,-0.043 0.293,-0.303 0.414,-0.237c0.071,0.037 0.059,0.122 0.016,0.186c-0.092,0.14 -0.485,0.392 -0.604,0.432Zm-0.217,-0.019l-0.043,0.033c-0.025,-0.013 -0.005,0.018 -0.022,-0.018c-0.02,-0.097 -0.173,-0.988 0.101,-0.905c0.244,0.074 0.015,0.702 -0.036,0.89Zm0.232,0.412l-0.048,-0.043c0.032,-0.021 0.06,-0.042 0.078,-0.055c0.111,0.032 0.254,0.096 0.349,0.144l0.204,0.11c0.077,0.044 0.241,0.165 0.198,0.253c-0.101,0.199 -0.715,-0.336 -0.781,-0.409Zm0.1,-0.215l-0.004,-0.049c0.119,-0.08 0.541,-0.202 0.769,-0.175c0.066,0.007 0.153,0.031 0.178,0.067c0.076,0.106 -0.334,0.157 -0.449,0.165c-0.142,0.01 -0.369,0.009 -0.494,-0.008Zm-0.047,0.098l0.013,-0.042c0.171,-0.036 0.673,0.01 0.822,0.103c0.194,0.123 0.138,0.282 -0.421,0.09c-0.075,-0.026 -0.136,-0.044 -0.213,-0.073l-0.201,-0.078Zm-0.453,-0.176c0.011,0.035 0.003,0.012 -0.006,0.019l-0.243,-0.086c-0.128,-0.06 -0.529,-0.332 -0.493,-0.447c0.119,-0.044 0.226,0.015 0.27,0.046c0.19,0.134 0.352,0.279 0.472,0.468Zm1.062,-0.251c-0.018,0.029 -0.21,0.105 -0.269,0.124c-0.059,0.022 -0.278,0.105 -0.338,0.086c-0.009,-0.041 -0.026,-0.025 -0.046,-0.053c0.152,-0.074 0.384,-0.226 0.479,-0.307c0.097,-0.081 0.26,-0.08 0.296,-0.047c0.076,0.066 -0.057,0.166 -0.122,0.197Zm-0.694,0.56c0.019,0.022 0.046,0.038 0.069,0.056c0.025,0.02 0.042,0.033 0.067,0.054c0.035,0.03 0.083,0.077 0.114,0.113c0.081,0.086 0.207,0.253 0.206,0.376c-0.001,0.039 -0.004,0.049 -0.03,0.065c-0.126,0.071 -0.278,-0.249 -0.306,-0.298c-0.027,-0.047 -0.208,-0.381 -0.205,-0.402c0.036,-0.005 0.064,0.021 0.085,0.036Zm-0.1,-0.432l-0.065,0.006l0.004,-0.016c0.014,-0.099 0.136,-0.48 0.188,-0.607c0.013,-0.031 0.026,-0.06 0.044,-0.089c0.023,-0.039 0.036,-0.063 0.09,-0.075c0.101,0.056 0.003,0.315 -0.04,0.41c-0.038,0.084 -0.165,0.321 -0.221,0.371Zm-0.229,0.098c-0.053,-0.007 -0.222,-0.244 -0.322,-0.326c-0.081,-0.066 -0.099,-0.077 -0.147,-0.177c-0.023,-0.048 -0.086,-0.19 -0.035,-0.241c0.035,-0.033 0.117,-0.027 0.157,-0.017c0.269,0.074 0.395,0.571 0.378,0.729l-0.031,0.032Zm5.97,-11.937c-0.106,0.075 -0.421,0.12 -0.553,0.114c-0.091,-0.005 -0.161,-0.021 -0.207,-0.055c-0.083,-0.062 0.001,-0.118 0.015,-0.171c0.079,-0.037 0.075,-0.064 0.213,-0.085c0.183,-0.028 0.477,0.046 0.544,0.107l-0.012,0.09Zm0.414,-0.231c-0.031,-0.013 -0.064,-0.014 -0.089,-0.026c0.096,-0.166 0.136,-0.212 0.264,-0.356c0.038,-0.043 0.293,-0.302 0.414,-0.236c0.069,0.038 0.058,0.122 0.015,0.186c-0.092,0.14 -0.484,0.392 -0.604,0.432Zm-0.332,0.344c0.017,0.018 0.019,0.021 0.052,0.025c0.028,0.134 0.008,0.285 -0.039,0.414c-0.065,0.179 -0.264,0.415 -0.338,0.232c-0.058,-0.141 0.042,-0.369 0.159,-0.512c0.038,-0.044 0.125,-0.136 0.166,-0.159Zm0.115,-0.363l-0.043,0.033c-0.024,-0.013 -0.005,0.017 -0.021,-0.018c-0.02,-0.096 -0.174,-0.987 0.1,-0.905c0.244,0.074 0.014,0.701 -0.036,0.89Zm0.232,0.412l-0.048,-0.043c0.032,-0.021 0.061,-0.042 0.078,-0.055c0.111,0.032 0.254,0.097 0.349,0.144l0.205,0.11c0.077,0.044 0.24,0.165 0.196,0.253c-0.099,0.199 -0.714,-0.337 -0.78,-0.409Zm-0.923,0.405c-0.051,0.005 -0.193,0.041 -0.132,-0.124c0.07,-0.191 0.368,-0.34 0.644,-0.402c0.008,0.024 0.035,0.044 0.039,0.062c-0.021,0.035 -0.034,0.033 -0.067,0.066l-0.161,0.195c-0.104,0.095 -0.296,0.18 -0.323,0.203Zm1.023,-0.621l-0.004,-0.049c0.119,-0.079 0.542,-0.201 0.77,-0.174c0.065,0.007 0.153,0.031 0.178,0.067c0.076,0.107 -0.335,0.156 -0.45,0.165c-0.141,0.01 -0.369,0.009 -0.494,-0.009Zm-0.047,0.098l0.013,-0.041c0.171,-0.035 0.674,0.01 0.822,0.105c0.195,0.12 0.138,0.28 -0.42,0.088c-0.076,-0.026 -0.138,-0.044 -0.213,-0.072l-0.202,-0.08Zm-0.453,-0.175c0.012,0.034 0.002,0.012 -0.006,0.019l-0.243,-0.085c-0.128,-0.059 -0.529,-0.333 -0.493,-0.448c0.119,-0.043 0.226,0.015 0.27,0.047c0.19,0.133 0.353,0.278 0.472,0.467Zm1.062,-0.251c-0.018,0.03 -0.209,0.105 -0.269,0.125c-0.059,0.021 -0.278,0.104 -0.338,0.085c-0.009,-0.04 -0.025,-0.025 -0.045,-0.053c0.151,-0.073 0.383,-0.226 0.478,-0.306c0.097,-0.082 0.26,-0.082 0.296,-0.049c0.076,0.067 -0.056,0.168 -0.122,0.198Zm-0.694,0.56c0.019,0.022 0.047,0.038 0.07,0.056c0.024,0.02 0.042,0.033 0.066,0.054c0.035,0.03 0.084,0.077 0.114,0.113c0.081,0.086 0.207,0.253 0.206,0.375c0,0.04 -0.004,0.05 -0.031,0.065c-0.125,0.072 -0.277,-0.248 -0.306,-0.298c-0.025,-0.046 -0.207,-0.38 -0.204,-0.402c0.036,-0.005 0.064,0.022 0.085,0.037Zm-0.096,0.784c-0.155,-0.054 -0.161,-0.643 -0.101,-0.805c0.042,-0.005 0.029,-0.002 0.063,0.071c0.014,0.031 0.027,0.06 0.039,0.092c0.053,0.132 0.165,0.557 -0.001,0.642Zm-0.004,-1.216l-0.065,0.005l0.004,-0.015c0.015,-0.099 0.136,-0.481 0.189,-0.607c0.013,-0.031 0.025,-0.059 0.044,-0.089c0.022,-0.039 0.035,-0.061 0.089,-0.076c0.101,0.057 0.003,0.318 -0.04,0.411c-0.037,0.084 -0.165,0.322 -0.221,0.371Zm-0.229,0.097c-0.053,-0.006 -0.222,-0.243 -0.321,-0.325c-0.082,-0.066 -0.1,-0.077 -0.148,-0.177c-0.023,-0.048 -0.086,-0.19 -0.035,-0.241c0.034,-0.033 0.117,-0.027 0.158,-0.017c0.268,0.074 0.395,0.571 0.377,0.728l-0.031,0.032Zm-7.05,8.47l-0.005,-0.049c0.119,-0.079 0.542,-0.201 0.77,-0.175c0.066,0.007 0.153,0.032 0.177,0.066c0.077,0.108 -0.333,0.158 -0.449,0.167c-0.141,0.01 -0.369,0.009 -0.493,-0.009Zm-0.047,0.097l0.012,-0.04c0.171,-0.036 0.673,0.01 0.823,0.103c0.194,0.122 0.136,0.281 -0.422,0.089c-0.075,-0.025 -0.136,-0.045 -0.212,-0.072l-0.201,-0.08Zm0.608,-0.425c-0.018,0.029 -0.21,0.103 -0.269,0.124c-0.059,0.02 -0.279,0.104 -0.338,0.086c-0.008,-0.042 -0.026,-0.027 -0.045,-0.053c0.151,-0.074 0.383,-0.226 0.478,-0.307c0.097,-0.082 0.26,-0.081 0.296,-0.048c0.076,0.067 -0.057,0.166 -0.122,0.198Zm4.947,-11.712c-0.106,0.076 -0.421,0.121 -0.553,0.114c-0.092,-0.005 -0.162,-0.021 -0.207,-0.054c-0.083,-0.064 0.001,-0.12 0.015,-0.172c0.079,-0.036 0.075,-0.063 0.213,-0.084c0.183,-0.029 0.477,0.046 0.544,0.105l-0.012,0.091Zm0.414,-0.232c-0.032,-0.011 -0.064,-0.012 -0.089,-0.025c0.097,-0.166 0.137,-0.211 0.263,-0.355c0.039,-0.044 0.294,-0.302 0.416,-0.238c0.069,0.039 0.057,0.123 0.014,0.188c-0.091,0.138 -0.485,0.39 -0.604,0.43Zm-0.332,0.344c0.017,0.018 0.02,0.022 0.052,0.025c0.029,0.134 0.008,0.285 -0.04,0.416c-0.065,0.179 -0.263,0.414 -0.337,0.23c-0.058,-0.14 0.042,-0.369 0.16,-0.51c0.038,-0.044 0.124,-0.137 0.165,-0.161Zm0.115,-0.362l-0.043,0.033c-0.024,-0.012 -0.006,0.018 -0.021,-0.017c-0.02,-0.098 -0.175,-0.988 0.1,-0.906c0.244,0.074 0.015,0.7 -0.036,0.89Zm0.232,0.413l-0.048,-0.044c0.032,-0.021 0.06,-0.043 0.078,-0.055c0.111,0.033 0.253,0.097 0.349,0.144l0.205,0.111c0.077,0.044 0.241,0.164 0.197,0.251c-0.101,0.199 -0.715,-0.335 -0.781,-0.407Zm-0.923,0.405c-0.05,0.003 -0.194,0.039 -0.133,-0.125c0.07,-0.191 0.368,-0.34 0.644,-0.403c0.01,0.025 0.036,0.044 0.04,0.063c-0.021,0.035 -0.034,0.033 -0.067,0.067l-0.162,0.193c-0.104,0.097 -0.295,0.182 -0.322,0.205Zm1.023,-0.621l-0.004,-0.049c0.12,-0.079 0.542,-0.202 0.77,-0.175c0.065,0.007 0.153,0.032 0.178,0.066c0.076,0.108 -0.334,0.158 -0.45,0.167c-0.141,0.01 -0.368,0.009 -0.494,-0.009Zm-0.047,0.097l0.013,-0.04c0.171,-0.037 0.673,0.01 0.823,0.103c0.194,0.122 0.137,0.282 -0.422,0.089c-0.075,-0.025 -0.136,-0.045 -0.212,-0.072l-0.202,-0.08Zm-0.453,-0.175c0.012,0.035 0.003,0.012 -0.006,0.02l-0.243,-0.087c-0.128,-0.059 -0.529,-0.331 -0.493,-0.448c0.119,-0.043 0.226,0.016 0.269,0.048c0.191,0.132 0.353,0.278 0.473,0.467Zm1.062,-0.25c-0.018,0.028 -0.209,0.103 -0.269,0.124c-0.059,0.02 -0.278,0.105 -0.338,0.086c-0.009,-0.042 -0.026,-0.027 -0.044,-0.053c0.15,-0.075 0.382,-0.226 0.477,-0.308c0.097,-0.081 0.26,-0.08 0.296,-0.047c0.076,0.067 -0.056,0.166 -0.122,0.198Zm-0.694,0.56c0.02,0.02 0.047,0.038 0.07,0.055c0.025,0.021 0.042,0.034 0.066,0.054c0.035,0.031 0.084,0.077 0.114,0.113c0.081,0.085 0.207,0.254 0.206,0.375c0,0.041 -0.005,0.051 -0.03,0.066c-0.127,0.072 -0.279,-0.249 -0.306,-0.3c-0.026,-0.045 -0.208,-0.379 -0.205,-0.4c0.036,-0.005 0.064,0.021 0.085,0.037Zm-0.096,0.784c-0.155,-0.054 -0.161,-0.644 -0.1,-0.807c0.041,-0.004 0.028,0 0.061,0.072c0.015,0.032 0.027,0.06 0.04,0.092c0.053,0.132 0.165,0.558 -0.001,0.643Zm-0.004,-1.216l-0.065,0.005l0.005,-0.017c0.014,-0.099 0.136,-0.479 0.187,-0.605c0.014,-0.031 0.026,-0.06 0.044,-0.091c0.024,-0.038 0.036,-0.061 0.091,-0.074c0.1,0.057 0.001,0.316 -0.04,0.411c-0.038,0.084 -0.166,0.32 -0.222,0.371Zm-0.228,0.097c-0.053,-0.007 -0.223,-0.245 -0.323,-0.325c-0.081,-0.067 -0.099,-0.079 -0.147,-0.177c-0.022,-0.049 -0.086,-0.19 -0.035,-0.243c0.035,-0.032 0.117,-0.027 0.158,-0.016c0.268,0.074 0.395,0.57 0.377,0.729l-0.03,0.032Zm-4.598,8.175c-0.071,0.05 -0.284,0.082 -0.375,0.077c-0.061,-0.002 -0.109,-0.014 -0.14,-0.037c-0.056,-0.042 0.001,-0.081 0.01,-0.116c0.054,-0.025 0.052,-0.043 0.145,-0.057c0.125,-0.019 0.323,0.031 0.369,0.072l-0.009,0.061Zm0.282,-0.157c-0.022,-0.008 -0.044,-0.009 -0.06,-0.018c0.065,-0.112 0.092,-0.142 0.179,-0.24c0.025,-0.029 0.198,-0.205 0.28,-0.161c0.048,0.026 0.04,0.082 0.012,0.126c-0.064,0.095 -0.33,0.266 -0.411,0.293Zm-0.225,0.233c0.012,0.012 0.013,0.015 0.035,0.017c0.02,0.091 0.005,0.193 -0.027,0.281c-0.044,0.122 -0.179,0.283 -0.229,0.158c-0.039,-0.096 0.028,-0.251 0.109,-0.347c0.025,-0.03 0.084,-0.093 0.112,-0.109Zm0.078,-0.245l-0.029,0.022c-0.017,-0.009 -0.004,0.012 -0.014,-0.011c-0.015,-0.067 -0.119,-0.672 0.067,-0.615c0.166,0.049 0.01,0.475 -0.024,0.604Zm0.158,0.278l-0.033,-0.028c0.022,-0.014 0.04,-0.029 0.053,-0.038c0.075,0.022 0.172,0.066 0.236,0.098l0.139,0.075c0.052,0.03 0.164,0.113 0.133,0.171c-0.067,0.135 -0.485,-0.227 -0.528,-0.278Zm-0.627,0.276c-0.035,0.003 -0.131,0.027 -0.09,-0.084c0.048,-0.129 0.25,-0.23 0.437,-0.273c0.007,0.016 0.024,0.03 0.027,0.043c-0.015,0.024 -0.024,0.021 -0.046,0.045l-0.109,0.131c-0.07,0.066 -0.201,0.123 -0.219,0.138Zm0.694,-0.421l-0.003,-0.033c0.081,-0.054 0.368,-0.137 0.522,-0.118c0.045,0.005 0.104,0.019 0.121,0.045c0.052,0.072 -0.226,0.106 -0.305,0.112c-0.096,0.008 -0.25,0.006 -0.335,-0.006Zm-0.031,0.067l0.007,-0.028c0.117,-0.025 0.458,0.006 0.559,0.07c0.131,0.082 0.092,0.19 -0.286,0.061c-0.05,-0.018 -0.093,-0.031 -0.144,-0.049l-0.136,-0.054Zm-0.308,-0.12c0.008,0.024 0.001,0.008 -0.005,0.013l-0.164,-0.057c-0.087,-0.041 -0.359,-0.225 -0.334,-0.305c0.08,-0.029 0.152,0.01 0.183,0.031c0.129,0.091 0.239,0.19 0.32,0.318Zm0.721,-0.17c-0.013,0.02 -0.143,0.07 -0.183,0.084c-0.039,0.015 -0.189,0.072 -0.229,0.058c-0.006,-0.028 -0.018,-0.016 -0.031,-0.035c0.102,-0.05 0.26,-0.154 0.325,-0.208c0.065,-0.057 0.175,-0.055 0.2,-0.032c0.052,0.045 -0.038,0.113 -0.082,0.133Zm-0.471,0.38c0.013,0.014 0.031,0.026 0.047,0.038c0.016,0.014 0.029,0.022 0.045,0.036c0.023,0.021 0.056,0.053 0.077,0.077c0.055,0.058 0.14,0.173 0.14,0.254c0,0.028 -0.004,0.036 -0.021,0.044c-0.085,0.049 -0.188,-0.167 -0.207,-0.201c-0.018,-0.032 -0.141,-0.258 -0.139,-0.273c0.025,-0.003 0.043,0.015 0.058,0.025Zm-0.065,0.533c-0.106,-0.037 -0.109,-0.437 -0.069,-0.548c0.028,-0.003 0.019,0 0.042,0.049c0.01,0.02 0.019,0.04 0.027,0.062c0.036,0.091 0.112,0.379 0,0.437Zm-0.003,-0.827l-0.045,0.005l0.004,-0.011c0.009,-0.067 0.092,-0.325 0.127,-0.412c0.009,-0.021 0.018,-0.039 0.031,-0.061c0.014,-0.026 0.023,-0.042 0.059,-0.05c0.069,0.039 0.002,0.215 -0.026,0.278c-0.026,0.058 -0.113,0.219 -0.15,0.251Zm-0.156,0.067c-0.036,-0.004 -0.15,-0.165 -0.218,-0.219c-0.056,-0.046 -0.068,-0.055 -0.1,-0.122c-0.016,-0.032 -0.058,-0.129 -0.023,-0.163c0.022,-0.023 0.079,-0.019 0.106,-0.012c0.182,0.051 0.269,0.388 0.256,0.495l-0.021,0.021Zm3.467,0.255c-0.062,0.101 -0.308,0.249 -0.42,0.291c-0.077,0.028 -0.141,0.04 -0.192,0.027c-0.09,-0.022 -0.041,-0.099 -0.047,-0.147c0.053,-0.058 0.041,-0.08 0.147,-0.146c0.142,-0.088 0.413,-0.129 0.489,-0.103l0.023,0.078Zm0.262,-0.338c-0.032,0.002 -0.058,0.012 -0.083,0.01c0.022,-0.171 0.039,-0.223 0.094,-0.387c0.016,-0.051 0.136,-0.356 0.26,-0.344c0.071,0.006 0.092,0.08 0.079,0.149c-0.028,0.148 -0.265,0.497 -0.35,0.572Zm-0.155,0.403c0.021,0.009 0.025,0.01 0.052,0.003c0.071,0.1 0.108,0.233 0.114,0.358c0.01,0.172 -0.071,0.438 -0.199,0.311c-0.098,-0.096 -0.095,-0.321 -0.046,-0.479c0.015,-0.052 0.054,-0.159 0.079,-0.193Zm-0.032,-0.342l-0.024,0.042c-0.024,-0.001 0.002,0.018 -0.024,-0.006c-0.051,-0.074 -0.494,-0.759 -0.237,-0.787c0.229,-0.026 0.26,0.575 0.285,0.751Zm0.339,0.262l-0.055,-0.02c0.018,-0.029 0.034,-0.056 0.044,-0.074c0.104,-0.011 0.245,-0.008 0.342,-0.003l0.209,0.02c0.078,0.008 0.258,0.052 0.252,0.139c-0.013,0.2 -0.712,-0.026 -0.792,-0.062Zm-0.624,0.662c-0.041,0.021 -0.147,0.1 -0.155,-0.057c-0.008,-0.184 0.186,-0.413 0.394,-0.561c0.016,0.016 0.044,0.023 0.055,0.038c-0.006,0.036 -0.017,0.039 -0.033,0.079l-0.066,0.216c-0.051,0.118 -0.181,0.256 -0.195,0.285Zm0.631,-0.877l-0.022,-0.039c0.072,-0.109 0.38,-0.359 0.579,-0.417c0.057,-0.018 0.138,-0.029 0.171,-0.008c0.101,0.062 -0.222,0.248 -0.315,0.296c-0.114,0.059 -0.303,0.139 -0.413,0.168Zm-0.005,0.097l-0.004,-0.038c0.13,-0.091 0.563,-0.229 0.721,-0.205c0.204,0.033 0.213,0.186 -0.319,0.223c-0.072,0.005 -0.129,0.012 -0.203,0.015l-0.195,0.005Zm-0.439,0.015c0.023,0.024 0.008,0.009 0.003,0.018l-0.233,0.014c-0.127,-0.003 -0.557,-0.088 -0.568,-0.198c0.085,-0.077 0.193,-0.066 0.241,-0.056c0.205,0.044 0.392,0.107 0.557,0.222Zm0.795,-0.584c-0.005,0.031 -0.138,0.161 -0.18,0.198c-0.042,0.039 -0.194,0.186 -0.25,0.192c-0.022,-0.032 -0.031,-0.013 -0.057,-0.028c0.099,-0.116 0.238,-0.325 0.289,-0.426c0.051,-0.102 0.187,-0.157 0.229,-0.143c0.086,0.028 0.012,0.158 -0.031,0.207Zm-0.38,0.71c0.024,0.011 0.053,0.016 0.078,0.022c0.028,0.007 0.047,0.014 0.074,0.022c0.04,0.012 0.097,0.035 0.135,0.054c0.098,0.041 0.261,0.136 0.304,0.239c0.014,0.033 0.014,0.043 -0.002,0.064c-0.08,0.104 -0.32,-0.108 -0.36,-0.14c-0.038,-0.029 -0.306,-0.242 -0.312,-0.261c0.028,-0.017 0.061,-0.005 0.083,0Zm0.198,0.687c-0.148,0.008 -0.361,-0.479 -0.368,-0.635c0.033,-0.019 0.023,-0.011 0.076,0.038c0.024,0.02 0.044,0.041 0.066,0.062c0.09,0.09 0.333,0.405 0.226,0.535Zm-0.434,-1.01l-0.051,0.028l-0.002,-0.015c-0.024,-0.087 -0.057,-0.447 -0.058,-0.571c0,-0.03 0,-0.057 0.005,-0.09c0.005,-0.041 0.007,-0.063 0.047,-0.093c0.104,0.011 0.115,0.261 0.113,0.354c-0.002,0.084 -0.024,0.326 -0.054,0.387Zm-0.154,0.161c-0.047,0.014 -0.272,-0.123 -0.383,-0.156c-0.091,-0.026 -0.111,-0.029 -0.185,-0.094c-0.036,-0.033 -0.139,-0.129 -0.114,-0.189c0.016,-0.04 0.087,-0.065 0.124,-0.07c0.25,-0.034 0.53,0.335 0.571,0.473l-0.013,0.036Zm6.036,-11.938c-0.062,0.099 -0.307,0.248 -0.42,0.289c-0.077,0.03 -0.142,0.041 -0.191,0.028c-0.091,-0.023 -0.041,-0.099 -0.048,-0.147c0.053,-0.058 0.04,-0.079 0.147,-0.146c0.143,-0.088 0.413,-0.128 0.489,-0.104l0.023,0.08Zm0.108,0.064c0.019,0.009 0.024,0.012 0.052,0.002c0.07,0.101 0.107,0.233 0.114,0.359c0.009,0.172 -0.072,0.439 -0.2,0.311c-0.098,-0.095 -0.095,-0.321 -0.046,-0.48c0.015,-0.049 0.053,-0.157 0.08,-0.192Zm0.306,-0.08l-0.056,-0.02c0.019,-0.028 0.035,-0.056 0.046,-0.074c0.103,-0.011 0.245,-0.008 0.341,-0.003l0.209,0.02c0.079,0.008 0.258,0.051 0.253,0.139c-0.014,0.2 -0.713,-0.024 -0.793,-0.062Zm-0.624,0.662c-0.041,0.021 -0.147,0.102 -0.155,-0.057c-0.008,-0.184 0.186,-0.411 0.394,-0.561c0.016,0.016 0.044,0.023 0.055,0.038c-0.006,0.036 -0.017,0.038 -0.033,0.079l-0.065,0.218c-0.053,0.116 -0.182,0.255 -0.196,0.283Zm0.631,-0.877l-0.022,-0.039c0.072,-0.109 0.379,-0.359 0.58,-0.418c0.056,-0.017 0.137,-0.028 0.17,-0.007c0.101,0.061 -0.222,0.248 -0.314,0.296c-0.114,0.059 -0.304,0.139 -0.414,0.168Zm-0.004,0.097l-0.005,-0.039c0.13,-0.089 0.563,-0.228 0.72,-0.204c0.205,0.033 0.213,0.186 -0.318,0.223c-0.071,0.005 -0.129,0.012 -0.203,0.015l-0.194,0.005Zm-0.024,0.141c0.023,0.01 0.052,0.016 0.077,0.022c0.028,0.009 0.048,0.014 0.074,0.021c0.041,0.014 0.098,0.036 0.136,0.054c0.097,0.044 0.261,0.137 0.304,0.239c0.013,0.035 0.013,0.044 -0.003,0.065c-0.079,0.104 -0.319,-0.107 -0.36,-0.14c-0.038,-0.028 -0.306,-0.241 -0.312,-0.261c0.029,-0.016 0.061,-0.005 0.084,0Zm0.197,0.687c-0.148,0.008 -0.361,-0.479 -0.368,-0.635c0.033,-0.018 0.023,-0.011 0.076,0.038c0.024,0.02 0.044,0.04 0.066,0.061c0.09,0.093 0.334,0.406 0.226,0.536Zm-11.201,14.835l0.029,-0.49c0.018,-0.028 0.034,-0.047 0.079,-0.057c0.1,0.056 0.002,0.316 -0.039,0.409c-0.014,0.032 -0.04,0.084 -0.069,0.138Zm-0.016,0.249l0.012,-0.206c0.038,-0.049 0.079,-0.097 0.142,-0.167c0.039,-0.044 0.293,-0.302 0.415,-0.238c0.07,0.038 0.058,0.123 0.016,0.188c-0.088,0.132 -0.447,0.365 -0.585,0.423Zm-0.026,0.382l0.004,-0.044l0.047,-0.035c0.111,0.033 0.253,0.096 0.349,0.143l0.204,0.112c0.077,0.042 0.242,0.165 0.198,0.252c-0.102,0.198 -0.716,-0.336 -0.781,-0.408l-0.021,-0.02Zm-0.012,0.176l0.009,-0.133c0.018,0.018 0.041,0.032 0.061,0.048c0.026,0.021 0.043,0.034 0.066,0.053c0.036,0.032 0.085,0.078 0.114,0.114c0.082,0.085 0.208,0.254 0.206,0.376c0,0.04 -0.004,0.05 -0.029,0.064c-0.127,0.071 -0.279,-0.248 -0.307,-0.298c-0.013,-0.024 -0.07,-0.128 -0.12,-0.224Zm-0.043,0.593l0.023,-0.311c0.018,0.118 0.02,0.24 -0.023,0.311Zm0.759,3.308c-0.075,-0.041 -0.151,-0.082 -0.225,-0.125c0.111,-0.155 0.365,-0.274 0.605,-0.329c0.008,0.026 0.035,0.046 0.039,0.065c-0.022,0.034 -0.034,0.032 -0.067,0.066l-0.162,0.193c-0.052,0.048 -0.126,0.094 -0.19,0.13Zm0.385,0.199c-0.087,-0.043 -0.175,-0.088 -0.262,-0.133c0.03,-0.102 0.09,-0.208 0.155,-0.286c0.038,-0.044 0.124,-0.137 0.166,-0.16c0.017,0.018 0.019,0.02 0.052,0.024c0.028,0.135 0.008,0.284 -0.04,0.415c-0.016,0.046 -0.041,0.095 -0.071,0.14Zm0.353,0.166c-0.061,-0.027 -0.121,-0.055 -0.182,-0.084c-0.045,-0.203 -0.035,-0.507 0.006,-0.618c0.042,-0.004 0.028,0 0.063,0.072c0.013,0.031 0.027,0.06 0.039,0.091c0.041,0.102 0.117,0.379 0.074,0.539Zm11.332,-16.3l-0.241,0.171c-0.192,0.007 -0.44,-0.009 -0.467,-0.091c0.071,-0.105 0.191,-0.119 0.246,-0.121c0.161,-0.002 0.313,0.008 0.462,0.041Zm0.154,-0.11l-0.142,0.101c-0.09,-0.02 -0.188,-0.044 -0.252,-0.048c-0.105,-0.005 -0.126,-0.005 -0.223,-0.056c-0.047,-0.026 -0.182,-0.104 -0.17,-0.176c0.007,-0.046 0.078,-0.09 0.117,-0.105c0.217,-0.082 0.526,0.13 0.67,0.284Zm0.092,-0.066l-0.07,0.051c-0.162,-0.157 -0.651,-0.666 -0.41,-0.75c0.226,-0.078 0.4,0.478 0.48,0.699Zm0.098,-0.068l-0.072,0.05c-0.054,-0.12 -0.163,-0.454 -0.193,-0.575c-0.007,-0.034 -0.014,-0.065 -0.016,-0.1c-0.005,-0.046 -0.009,-0.07 0.028,-0.113c0.114,-0.015 0.189,0.256 0.21,0.354c0.016,0.076 0.043,0.277 0.043,0.384Zm0.165,-0.119l-0.153,0.11c-0.015,-0.163 -0.009,-0.227 0.008,-0.405c0.006,-0.057 0.06,-0.416 0.196,-0.435c0.078,-0.01 0.119,0.064 0.122,0.141c0.006,0.129 -0.093,0.417 -0.173,0.589Zm0.297,-0.211l-0.277,0.196c0.064,-0.142 0.126,-0.316 0.148,-0.408c0.031,-0.124 0.164,-0.217 0.212,-0.213c0.101,0.01 0.052,0.169 0.017,0.232c0.003,0.025 -0.055,0.121 -0.1,0.193Zm1.566,-2.431l0.344,0.536c-0.179,0.007 -0.41,-0.137 -0.551,-0.29c-0.05,-0.053 -0.152,-0.175 -0.174,-0.23c0.025,-0.019 0.03,-0.021 0.039,-0.06c0.112,-0.01 0.23,0.008 0.342,0.044Zm-0.137,-0.212l0.106,0.165c-0.119,-0.02 -0.221,-0.048 -0.276,-0.078c0.001,-0.053 0.003,-0.035 0.098,-0.065l0.072,-0.022Zm-0.103,-0.161l0.047,0.075c-0.061,0.021 -0.107,0.034 -0.115,0.032c-0.001,-0.045 0.037,-0.075 0.059,-0.1l0.009,-0.007Zm-0.106,-0.165l0.083,0.13l-0.001,0l-0.061,0.052c-0.022,-0.042 -0.043,-0.081 -0.057,-0.106c0.01,-0.025 0.023,-0.049 0.036,-0.076Zm-0.098,-0.154l0.081,0.126l-0.039,0.072l-0.05,-0.021c-0.003,-0.046 -0.001,-0.106 0.008,-0.177Zm-0.244,-0.38l0.21,0.328c-0.012,0.067 -0.025,0.128 -0.038,0.177l-0.063,-0.002c-0.043,-0.088 -0.088,-0.291 -0.109,-0.503Zm-0.282,-0.439l0.168,0.262c0.032,0.087 0.066,0.23 0.078,0.284c0.016,0.077 0.086,0.364 0.053,0.434c-0.053,0.005 -0.037,0.03 -0.073,0.049c-0.068,-0.2 -0.221,-0.513 -0.307,-0.644c-0.087,-0.133 -0.059,-0.336 -0.013,-0.376c0.032,-0.028 0.064,-0.027 0.094,-0.009Zm-2.929,-0.586l0.217,-0.108c0.074,0.036 0.002,0.158 -0.04,0.204c-0.004,0.032 -0.137,0.162 -0.178,0.2c-0.043,0.038 -0.195,0.185 -0.251,0.19c-0.022,-0.031 -0.031,-0.012 -0.057,-0.027c0.1,-0.116 0.238,-0.324 0.289,-0.424c0.006,-0.013 0.013,-0.023 0.02,-0.035Zm-0.353,0.178l0.325,-0.163c-0.081,0.167 -0.238,0.389 -0.304,0.446c-0.031,0.002 -0.058,0.012 -0.082,0.01c0.016,-0.133 0.029,-0.195 0.061,-0.293Zm-0.172,0.086l0.135,-0.067c-0.008,0.105 -0.026,0.243 -0.047,0.287l-0.052,0.028l-0.002,-0.015c-0.01,-0.039 -0.022,-0.131 -0.034,-0.233Zm-0.17,0.085l0.147,-0.073c0.014,0.101 0.022,0.193 0.029,0.246l-0.024,0.042c-0.025,-0.001 0.002,0.018 -0.024,-0.006c-0.016,-0.023 -0.07,-0.105 -0.128,-0.209Zm-0.281,0.14l0.245,-0.122c0.079,0.091 0.136,0.186 0.153,0.242l-0.014,0.036c-0.047,0.014 -0.271,-0.123 -0.383,-0.156l-0.001,0Zm-0.278,0.139l0.253,-0.125c0.138,0.04 0.267,0.096 0.385,0.178c0.022,0.024 0.006,0.009 0.002,0.018l-0.233,0.014c-0.077,-0.001 -0.267,-0.034 -0.407,-0.085Zm4.435,1.459c-0.016,0.065 -0.338,0.238 -0.455,0.349c-0.096,0.091 -0.114,0.112 -0.245,0.156c-0.063,0.021 -0.251,0.077 -0.306,0.005c-0.036,-0.049 -0.015,-0.149 0.005,-0.198c0.134,-0.323 0.773,-0.402 0.967,-0.354l0.034,0.042Zm-1.353,13.821l0.03,0.172c-0.064,0.129 -0.2,0.292 -0.256,0.353c-0.116,0.129 -0.319,0.317 -0.446,0.407l-0.052,-0.042c0.032,-0.17 0.292,-0.631 0.52,-0.798c0.059,-0.044 0.145,-0.091 0.204,-0.092Z" style="fill:#2c4f80;"/><path d="M27.064,23.562c-0.6,0.037 -2.71,-0.282 -3.206,-0.49c-2.234,4.342 6.452,3.934 3.206,0.49Z" style="fill:#e79f79;"/><path d="M22.16,18.896l2.011,-13.907c0.098,0.146 4.314,1.49 5.356,2.014c2.312,1.163 2.038,4.288 3.165,7.629c1.403,4.161 -0.052,7.591 -3.457,8.759c-2.6,0.892 -7.445,0.1 -7.589,-2.943c0.043,-0.005 0.471,-1.547 0.514,-1.552Z" style="fill:#fbc9a6;"/><path d="M28.43,13.573l0.055,0.286c0.184,0.977 0.412,2.187 1.104,2.247l0.13,0.01c0.519,0.036 1.139,0.082 1.384,1.025c0.054,0.206 0.043,0.395 -0.009,0.562c-0.088,0.28 -0.297,0.498 -0.517,0.654c-0.212,0.152 -0.438,0.251 -0.566,0.292c-0.078,0.025 -0.14,0.026 -0.163,0.013l0.063,-0.21c0.009,0.006 0.003,-0.018 0.041,-0.029c0.12,-0.041 0.33,-0.131 0.529,-0.272c0.193,-0.139 0.374,-0.324 0.446,-0.554c0.037,-0.12 0.045,-0.253 0.008,-0.401c-0.202,-0.775 -0.749,-0.814 -1.208,-0.847l-0.13,-0.01c-0.838,-0.072 -1.086,-1.385 -1.286,-2.445l-0.055,-0.286l0.174,-0.035Z" style="fill:#e79f79;"/><path d="M24.819,13.532l-0.265,-0.582l2.007,-0.521l0.115,0.834l-1.857,0.269Z" style="fill:#5c3f24;"/><path d="M29.842,12.435l-0.123,-0.663l1.899,-0.352l0.179,0.625l-1.955,0.39Z" style="fill:#5c3f24;"/><path d="M26.747,17c0.33,-0.086 0.532,-0.454 0.453,-0.823c-0.08,-0.369 -0.411,-0.598 -0.74,-0.513c-0.329,0.086 -0.532,0.455 -0.453,0.824c0.079,0.368 0.41,0.597 0.74,0.512Z" style="fill:#5c3f24;"/><path d="M30.945,15.949c0.329,-0.085 0.532,-0.455 0.453,-0.824c-0.079,-0.368 -0.41,-0.598 -0.74,-0.512c-0.33,0.086 -0.532,0.455 -0.453,0.823c0.079,0.369 0.41,0.598 0.74,0.513Z" style="fill:#5c3f24;"/><path d="M23.581,4.895c0.785,0.115 2.771,1.817 4.673,2.097c2.933,0.429 2.8,1.976 3.566,4.136c0.357,-2.141 0.511,-5.433 -1.879,-6.151c-2.172,-0.652 -6.361,-0.082 -6.36,-0.082Z" style="fill:#612919;"/><path d="M23.065,22.529c-5.402,-0.741 -12.733,-8.338 -9.007,-14.335c2.422,-3.898 9.158,-3.166 10.758,-3.428c3.471,9.719 -3.295,8.107 -2.156,14.606l0.405,3.157Z" style="fill:#773320;"/><path d="M22.202,21.091c0.939,-0.502 1.256,-1.841 0.707,-2.992c-0.547,-1.15 -1.752,-1.675 -2.692,-1.172c-0.939,0.502 -1.256,1.842 -0.709,2.991c0.549,1.151 1.754,1.675 2.694,1.173Z" style="fill:#fbc9a6;"/><path d="M23.197,6.183l-0.098,0c1.104,2.415 -1.172,3.958 -3.403,5.47c-1.127,0.763 -2.242,1.519 -2.915,2.378c-0.412,0.528 -0.659,1.092 -0.641,1.719c0.102,0.488 0.247,0.947 0.429,1.358c0.282,0.482 0.712,1.001 1.322,1.56l0.058,-0.073c-2.081,-1.911 -2.037,-3.308 -1.101,-4.503c0.662,-0.849 1.772,-1.6 2.893,-2.359c2.254,-1.527 4.554,-3.087 3.456,-5.55Zm0.548,0.01c-0.052,-0.002 -0.106,-0.006 -0.157,-0.007c1.268,2.495 -0.881,4.25 -3,5.978c-0.925,0.756 -1.846,1.507 -2.478,2.316c-1.019,1.302 -1.295,2.745 0.335,4.572c0.056,0.018 0.11,0.033 0.167,0.045c-1.7,-1.835 -1.445,-3.269 -0.436,-4.557c0.625,-0.801 1.542,-1.548 2.463,-2.3c2.048,-1.671 4.123,-3.365 3.19,-5.737c1.41,2.45 -0.556,4.282 -2.509,6.103c-0.728,0.678 -1.455,1.355 -2.009,2.062c-0.919,1.174 -1.366,2.427 -0.576,3.903c-0.005,-0.069 -0.008,-0.145 -0.008,-0.222c-0.64,-1.362 -0.206,-2.528 0.65,-3.62c0.549,-0.701 1.272,-1.376 1.997,-2.051c2.055,-1.913 4.12,-3.838 2.371,-6.485Z" style="fill:#875c32;"/><path d="M24.81,4.84l0.005,-0.074c0.197,0.17 2.139,-0.024 2.56,-0.008c1.552,0.061 3.088,0.12 4.143,0.568c1.142,0.483 1.604,1.386 1.413,2.722c-0.172,0.671 -0.673,1.757 -1.197,2.718l-0.09,-0.039c1.792,-3.277 1.287,-4.675 -0.183,-5.298c-1.042,-0.442 -2.569,-0.501 -4.112,-0.561c-0.861,-0.034 -1.747,0.073 -2.539,-0.028Z" style="fill:#773320;"/><path d="M24.809,5.708l0.002,-0.115c0.55,0.098 1.124,0.177 1.696,0.255c1.317,0.182 2.625,0.362 3.619,0.782c1.601,0.679 2.387,1.977 1.091,4.88c-0.059,0.053 -0.117,0.104 -0.179,0.153c1.375,-2.957 0.616,-4.257 -0.969,-4.93c-0.984,-0.416 -2.287,-0.595 -3.596,-0.775c-0.561,-0.077 -1.123,-0.154 -1.664,-0.25Z" style="fill:#773320;"/><path d="M25.015,4.906l-0.06,-0.097c0.329,-0.119 0.662,-0.245 0.995,-0.369c1.042,-0.392 2.083,-0.785 3.036,-0.957c1.579,-0.286 2.914,0.023 3.618,1.9c-0.054,-0.052 -0.115,-0.105 -0.181,-0.156c-0.706,-1.629 -1.96,-1.895 -3.43,-1.628c-0.945,0.171 -1.982,0.561 -3.02,0.953c-0.32,0.119 -0.64,0.24 -0.958,0.354Z" style="fill:#773320;"/><path d="M16.173,25.063l1.092,-3.05l-10.45,-4.746c0.262,-0.775 -0.264,-1.624 -0.705,-2.14c-0.373,-0.437 -0.662,-0.696 -0.586,0.134c0.051,0.552 0.325,1.035 0.28,1.126c-0.088,0.182 -1.079,-0.712 -2.833,-1.211c-0.019,-0.005 -1.124,0.394 0.759,1.083c2.048,0.749 -2.263,-0.667 -1.626,0.701c0.004,0.007 1.872,0.395 2.066,0.425c-1.188,0.29 -2.251,-0.06 -1.84,0.82c0.084,0.18 2.247,-0.074 1.653,0.264c-0.117,0.067 -0.543,0.083 -0.892,0.211c-0.079,0.03 -0.752,0.539 0.598,0.556c0.534,0.008 2.512,-0.156 2.597,-0.117c3.365,2.225 6.162,4.363 9.887,5.944Z" style="fill:#fbc9a6;"/><path d="M26.478,19.552l3.639,0.374c-0.838,3.226 -3.866,2.149 -3.639,-0.374Z" style="fill:#5d262c;"/><path d="M29.121,21.615c-0.741,0.549 -1.648,0.34 -2.187,-0.346c0.706,-0.489 1.629,-0.422 2.187,0.346Z" style="fill:#f27d73;"/><path d="M26.74,19.578l2.983,0.307c-0.916,1.366 -2.462,0.975 -2.983,-0.307Z" style="fill:#fff6f0;"/></g></svg>