<?xml version="1.0" encoding="UTF-8" standalone="no"?><!DOCTYPE svg PUBLIC "-//W3C//DTD SVG 1.1//EN" "http://www.w3.org/Graphics/SVG/1.1/DTD/svg11.dtd"><svg width="100%" height="100%" viewBox="0 0 48 48" version="1.1" xmlns="http://www.w3.org/2000/svg" xmlns:xlink="http://www.w3.org/1999/xlink" xml:space="preserve" xmlns:serif="http://www.serif.com/" style="fill-rule:evenodd;clip-rule:evenodd;stroke-linejoin:round;stroke-miterlimit:2;"><g><path d="M15.084,26.706l0.526,-3.125l-10.918,-1.927c0.107,-1.457 -2.576,-3.279 -1.983,-1.622c0.545,1.518 0.521,0.659 -2.117,0.59c-0.02,0 -0.958,0.64 0.97,0.831c2.096,0.209 -2.278,-0.08 -1.352,1.048c0.005,0.006 1.847,-0.082 2.035,-0.1c0.278,-0.028 -0.072,0.157 -0.46,0.249c-0.062,0.199 -1.695,0.194 -1.064,0.961c0.145,0.177 2.623,-0.975 0.826,0.262c-0.069,0.047 -0.476,0.847 0.693,0.376c0.216,-0.087 2.712,-0.528 2.793,-0.514l7.249,2.505l2.802,0.466Z" style="fill:#fbc9a6;"/><path d="M33.016,25.693l-0.593,-3.112l10.875,-2.162c-0.076,-0.788 0.606,-1.47 1.135,-1.859c0.446,-0.328 0.776,-0.508 0.52,0.256c-0.169,0.508 -0.367,0.709 -0.346,0.804c0.043,0.192 1.006,-0.238 2.767,-0.321c0.019,-0.002 0.971,0.616 -0.953,0.85c-2.091,0.254 2.277,-0.128 1.375,1.018c-0.004,0.007 -1.847,-0.04 -2.037,-0.055c-0.277,-0.022 0.075,0.156 0.466,0.24c0.066,0.197 1.699,0.156 1.085,0.937c-0.117,0.15 -2.097,-0.565 -1.613,-0.115c0.095,0.088 0.492,0.197 0.793,0.395c0.068,0.045 0.615,0.497 -0.686,0.39c-0.141,-0.011 -0.882,-0.036 -1.647,-0.153c-0.493,-0.074 -1.124,-0.306 -1.156,-0.3l-7.193,2.66l-2.792,0.527Z" style="fill:#fbc9a6;"/><path d="M25.587,23.504l-3.796,0.219l-6.305,-0.584l-0.495,3.783l4.105,1.03c-0.485,4.856 -0.051,10.393 0.838,14.106c2.777,-2.14 6.502,-3.089 12.141,-2.44c-1.508,-5.787 -1.748,-8.021 -2.654,-12.185l5.14,-1.63l-1.256,-3.922l-7.718,1.623Z" style="fill:#5d6c83;"/><path d="M16.673,23.25l-1.187,-0.111l-0.495,3.783l1.189,0.299c0.424,-1.099 0.608,-2.48 0.493,-3.971Z" style="fill:#a8415e;"/><path d="M33.529,26.13l1.032,-0.327l-1.256,-3.922l-0.832,0.175c0.04,0.501 0.112,1.015 0.221,1.535c0.192,0.918 0.479,1.773 0.835,2.539Z" style="fill:#a8415e;"/><path d="M25.587,23.504l-3.796,0.22l-1.51,-0.141l0.001,0.023c0.033,2.052 1.555,3.69 3.4,3.661c1.845,-0.03 3.315,-1.717 3.281,-3.768c-0.002,-0.094 -0.006,-0.188 -0.014,-0.282l-1.362,0.287Z" style="fill:#a8415e;"/><path d="M31.059,21.637c-1.006,0.135 -1.925,-0.536 -2.054,-1.498c-0.128,-0.962 0.581,-1.852 1.587,-1.986c1.006,-0.135 1.925,0.536 2.054,1.499c0.128,0.963 -0.582,1.852 -1.587,1.985Z" style="fill:#fbc9a6;"/><path d="M16.047,21.317c-1.006,0.136 -1.925,-0.536 -2.054,-1.498c-0.129,-0.963 0.582,-1.852 1.588,-1.986c1.005,-0.135 1.924,0.536 2.053,1.498c0.129,0.964 -0.582,1.853 -1.587,1.986Z" style="fill:#fbc9a6;"/><path d="M26.226,23.259l-4.255,1.411c0.482,3.064 3.166,1.989 4.255,-1.411Z" style="fill:#e79f79;"/><path d="M22.844,7.856c-4.835,0.647 -8.272,4.774 -7.678,9.219c0.525,3.934 3.486,8.329 7.84,7.9c5.208,-0.514 9.405,-5.892 8.811,-10.337c-0.594,-4.444 -4.139,-7.427 -8.973,-6.782Z" style="fill:#fbc9a6;"/><path d="M21.166,16.149l0.075,0.221c0.259,0.758 0.581,1.695 -0.047,2.075l-0.119,0.07c-0.474,0.28 -1.04,0.613 -0.853,1.377c0.041,0.168 0.134,0.292 0.258,0.381c0.208,0.148 0.501,0.194 0.778,0.194c0.27,0 0.526,-0.043 0.665,-0.079c0.084,-0.019 0.145,-0.05 0.16,-0.07l-0.152,-0.112c-0.007,0.008 -0.011,-0.011 -0.052,-0.001c-0.131,0.031 -0.37,0.073 -0.621,0.073c-0.243,0 -0.498,-0.038 -0.668,-0.16c-0.088,-0.063 -0.155,-0.151 -0.184,-0.27c-0.154,-0.629 0.347,-0.923 0.765,-1.17l0.119,-0.07c0.761,-0.459 0.412,-1.478 0.131,-2.299l-0.076,-0.221l-0.179,0.061Z" style="fill:#e79f79;"/><path d="M24.694,18.289c-0.361,0.049 -0.698,-0.242 -0.752,-0.648c-0.054,-0.406 0.195,-0.776 0.555,-0.824c0.361,-0.048 0.698,0.242 0.752,0.649c0.054,0.407 -0.195,0.776 -0.555,0.823Z" style="fill:#5c3f24;"/><path d="M18.962,18.138c-0.361,0.048 -0.697,-0.243 -0.752,-0.649c-0.055,-0.408 0.194,-0.776 0.555,-0.824c0.361,-0.048 0.697,0.242 0.752,0.649c0.055,0.407 -0.194,0.776 -0.555,0.824Z" style="fill:#5c3f24;"/><path d="M24.17,20.863l-4.277,0.59c1.121,3.771 4.647,2.376 4.277,-0.59Z" style="fill:#5d262c;"/><path d="M21.137,23.403c0.896,0.618 1.956,0.335 2.565,-0.496c-0.853,-0.547 -1.938,-0.43 -2.565,0.496Z" style="fill:#f27d73;"/><path d="M23.862,20.905l-3.506,0.483c1.137,1.575 2.944,1.05 3.506,-0.483Z" style="fill:#fff6f0;"/><path d="M31.872,11.181c3.051,4.187 -1.303,7.481 -1.41,8.8c0.672,-4.191 -5.546,-7.206 -6.013,-7.577c-1.8,-1.435 -1.019,-4.094 0.606,-4.93c2.879,-1.481 6.139,0.579 7.192,3.071c0.055,0.13 0.657,-0.771 1,-1.116c0.116,0.489 0.398,0.983 -0.905,1.236c0.804,0.096 0.752,0.165 1.317,0.576c-0.396,0.187 -1.487,0.333 -1.787,-0.06Z" style="fill:#bb6f2b;"/><path d="M15.809,9.812c-3.55,3.774 -0.384,7.777 0.3,8.908c0.789,-5.567 6.637,-7.304 7.147,-7.614c1.341,-0.817 1.451,-1.956 0.907,-2.925c0.297,-0.288 0.31,-0.286 0.702,-0.531c0.472,-0.297 0.904,-0.373 0.996,-1.708c-1.591,0.206 -1.696,1.341 -1.841,1.339c-0.057,-0.358 -0.601,-1.071 -0.946,-1.148c0.031,0.474 0.028,0.711 0.102,0.955c-0.044,-0.034 -0.093,-0.068 -0.14,-0.101c-2.671,-1.829 -6.164,-0.192 -7.519,2.149c-0.071,0.121 -0.557,-0.848 -0.853,-1.233c-0.176,0.47 -0.518,0.925 0.743,1.337c-0.81,-0.003 -0.767,0.072 -1.378,0.409c0.37,0.235 1.435,0.516 1.78,0.163Z" style="fill:#bb6f2b;"/><path d="M24.619,7.251l0.096,-0.015c-0.83,2.521 1.551,3.69 3.882,4.835c1.177,0.577 2.344,1.149 3.088,1.887c0.456,0.455 0.755,0.969 0.802,1.582c-0.049,0.493 -0.143,0.962 -0.279,1.392c-0.225,0.513 -0.592,1.082 -1.13,1.718l-0.063,-0.063c1.834,-2.175 1.647,-3.532 0.612,-4.56c-0.735,-0.728 -1.894,-1.297 -3.065,-1.873c-2.357,-1.156 -4.762,-2.336 -3.943,-4.903Zm-0.534,0.091c0.051,-0.01 0.103,-0.022 0.153,-0.032c-0.98,2.626 1.297,4.019 3.541,5.392c0.981,0.601 1.956,1.197 2.656,1.892c1.128,1.119 1.546,2.487 0.143,4.514c-0.053,0.025 -0.105,0.048 -0.158,0.069c1.469,-2.044 1.074,-3.407 -0.043,-4.515c-0.693,-0.688 -1.664,-1.282 -2.64,-1.879c-2.169,-1.327 -4.368,-2.673 -3.702,-5.126c-1.124,2.601 0.982,4.097 3.077,5.585c0.779,0.553 1.558,1.107 2.171,1.716c1.016,1.008 1.581,2.166 0.963,3.724c-0.002,-0.069 -0.008,-0.144 -0.016,-0.22c0.485,-1.423 -0.059,-2.497 -1.006,-3.436c-0.607,-0.603 -1.383,-1.154 -2.16,-1.706c-2.201,-1.563 -4.412,-3.136 -2.979,-5.978Z" style="fill:#875c32;"/><path d="M22.733,7.301l-0.092,-0.03c0.411,2.623 -2.126,3.391 -4.612,4.143c-1.255,0.379 -2.499,0.756 -3.353,1.364c-0.524,0.375 -0.902,0.835 -1.047,1.433c-0.03,0.494 -0.013,0.971 0.05,1.417c0.14,0.542 0.41,1.164 0.837,1.879l0.074,-0.052c-1.459,-2.442 -1.055,-3.752 0.133,-4.599c0.842,-0.601 2.078,-0.975 3.326,-1.352c2.514,-0.762 5.078,-1.538 4.684,-4.203Zm0.513,0.176c-0.049,-0.018 -0.099,-0.038 -0.147,-0.056c0.543,2.749 -1.929,3.757 -4.365,4.749c-1.065,0.433 -2.124,0.865 -2.927,1.438c-1.294,0.922 -1.926,2.205 -0.87,4.431c0.048,0.032 0.095,0.064 0.145,0.093c-1.12,-2.253 -0.509,-3.534 0.771,-4.447c0.796,-0.567 1.85,-0.997 2.909,-1.428c2.355,-0.96 4.742,-1.933 4.481,-4.461c0.689,2.748 -1.63,3.884 -3.937,5.014c-0.859,0.421 -1.717,0.84 -2.421,1.343c-1.165,0.83 -1.91,1.882 -1.551,3.519c0.013,-0.068 0.03,-0.139 0.05,-0.214c-0.248,-1.483 0.462,-2.454 1.548,-3.229c0.697,-0.497 1.551,-0.915 2.407,-1.334c2.425,-1.187 4.861,-2.381 3.907,-5.418Z" style="fill:#875c32;"/><path d="M26.297,15.718l0.156,-0.715l-2.042,-0.353l-0.217,0.675l2.103,0.393Z" style="fill:#875c32;"/><path d="M19.65,14.992l-0.246,-0.691l-1.92,0.779l0.172,0.687l1.994,-0.775Z" style="fill:#875c32;"/></g></svg>