<?xml version="1.0" encoding="UTF-8" standalone="no"?><!DOCTYPE svg PUBLIC "-//W3C//DTD SVG 1.1//EN" "http://www.w3.org/Graphics/SVG/1.1/DTD/svg11.dtd"><svg width="100%" height="100%" viewBox="0 0 48 48" version="1.1" xmlns="http://www.w3.org/2000/svg" xmlns:xlink="http://www.w3.org/1999/xlink" xml:space="preserve" xmlns:serif="http://www.serif.com/" style="fill-rule:evenodd;clip-rule:evenodd;stroke-linejoin:round;stroke-miterlimit:2;"><g><path d="M15.721,26.132l1.282,-3.243l-11.071,-5.474c0.31,-0.826 -0.227,-1.758 -0.683,-2.328c-0.385,-0.483 -0.688,-0.773 -0.634,0.123c0.035,0.595 0.311,1.125 0.261,1.221c-0.103,0.194 -1.136,-0.804 -3.004,-1.403c-0.021,-0.007 -1.224,0.383 0.778,1.192c2.175,0.879 -2.412,-0.797 -1.775,0.696c0.004,0.009 2,0.491 2.208,0.531c-1.289,0.27 -2.419,-0.146 -2.009,0.817c0.084,0.195 2.42,0 1.769,0.343c-0.128,0.066 -0.587,0.07 -0.967,0.195c-0.087,0.028 -0.828,0.553 0.624,0.619c0.573,0.026 2.707,-0.08 2.797,-0.034c3.541,2.512 6.473,4.912 10.424,6.745Z" style="fill:#fbc9a6;"/><path d="M33.317,26.711l-1.605,-3.096l10.457,-6.572c-0.392,-0.79 0.047,-1.771 0.443,-2.386c0.334,-0.518 0.605,-0.838 0.644,0.06c0.025,0.594 -0.196,1.15 -0.136,1.241c0.121,0.182 1.048,-0.916 2.846,-1.702c0.02,-0.008 1.256,0.257 -0.653,1.264c-2.075,1.096 2.317,-1.038 1.836,0.513c-0.003,0.009 -1.94,0.693 -2.142,0.752c1.309,0.138 2.392,-0.39 2.081,0.609c-0.063,0.203 -2.407,0.245 -1.725,0.52c0.135,0.055 0.591,0.011 0.982,0.097c0.09,0.019 0.88,0.466 -0.558,0.68c-0.567,0.084 -2.7,0.195 -2.786,0.25c-3.267,2.86 -5.94,5.544 -9.684,7.77Z" style="fill:#fbc9a6;"/><path d="M26.441,24.44l-3.79,0.547l-5.803,-2.492l-2.263,4.027l4.886,3.069c-0.942,4.701 -1.39,10.829 -1.411,14.809c12.53,2.804 11.981,2.935 14.134,-1.422c-0.06,-0.379 -1.054,-1.061 -1.107,-1.419c-0.761,-5.139 -0.881,-8.322 -1.334,-12.21l4.747,-2.298l-1.771,-4.46l-4.341,1.973l-1.947,-0.124Z" style="fill:#ceeef5;"/><path d="M34.021,27.283l0.479,-0.232l-1.771,-4.46l-0.541,0.246c0.434,0.616 0.721,1.059 0.988,1.697c0.258,0.618 0.502,1.426 0.845,2.749Zm-1.926,0.932l0.567,-0.274c-0.334,-1.281 -0.578,-2.082 -0.84,-2.708c-0.281,-0.672 -0.578,-1.137 -1.019,-1.767l-0.334,0.152l-0.21,0.147c0.437,0.621 0.725,1.066 0.992,1.706c0.258,0.616 0.502,1.423 0.844,2.744Zm-1.013,13.31c-0.031,-0.206 -0.06,-0.41 -0.089,-0.61c-1.027,0.217 -2.036,0.535 -2.492,1.076c-1.942,2.312 -5.255,1.551 -8.113,0.895c-0.767,-0.177 -1.502,-0.345 -2.171,-0.45l-0.095,0.611c0.661,0.102 1.38,0.267 2.13,0.44c3.028,0.695 6.538,1.501 8.723,-1.1c0.341,-0.406 1.199,-0.67 2.107,-0.862Zm-12.8,-2.539c-0.014,0.209 -0.029,0.417 -0.042,0.623c0.672,0.163 1.457,0.31 2.238,0.422c1.496,0.215 3.004,0.306 3.723,0.147c1.312,-0.291 2.785,-0.5 4.275,-0.636c0.774,-0.07 1.55,-0.121 2.311,-0.154c-0.027,-0.207 -0.053,-0.412 -0.078,-0.615c-0.754,0.034 -1.524,0.085 -2.288,0.155c-1.509,0.137 -3.008,0.349 -4.352,0.647c-0.644,0.144 -2.067,0.052 -3.502,-0.154c-0.809,-0.117 -1.616,-0.269 -2.285,-0.435Zm0.281,-3.202c-0.022,0.213 -0.044,0.426 -0.065,0.638c0.16,0.065 0.315,0.129 0.468,0.193c1.125,0.468 2.15,0.893 3.799,0.812c1.08,-0.052 2.12,-0.116 3.132,-0.178c1.547,-0.093 3.031,-0.183 4.611,-0.231c-0.022,-0.207 -0.044,-0.412 -0.064,-0.616c-1.57,0.048 -3.045,0.139 -4.583,0.232c-0.989,0.06 -2.007,0.123 -3.124,0.177c-1.514,0.074 -2.477,-0.326 -3.535,-0.766c-0.208,-0.087 -0.418,-0.174 -0.639,-0.261Zm0.407,-3.266c-0.03,0.204 -0.06,0.409 -0.088,0.615c1.637,0.414 3.476,0.722 5.324,0.914c2.088,0.214 4.191,0.281 6.028,0.181l-0.056,-0.614c-1.797,0.096 -3.857,0.03 -5.907,-0.183c-1.845,-0.189 -3.679,-0.498 -5.301,-0.913Zm0.387,-2.338c-0.038,0.201 -0.074,0.403 -0.111,0.608c0.896,0.188 1.528,0.307 2.173,0.39c0.904,0.118 1.817,0.162 3.507,0.226l0.376,0.015c0.956,0.042 2.896,0.124 4.676,0.054c-0.019,-0.196 -0.038,-0.392 -0.058,-0.589c-1.716,0.043 -3.651,-0.042 -4.589,-0.082l-0.38,-0.016c-1.671,-0.063 -2.573,-0.106 -3.452,-0.22c-0.627,-0.081 -1.25,-0.2 -2.142,-0.386Zm-0.771,-6.938l-0.381,-0.162l-0.2,-0.054c-0.192,0.735 -0.345,1.241 -0.663,1.859c-0.303,0.591 -0.76,1.295 -1.543,2.399l0.524,0.33c0.788,-1.114 1.253,-1.831 1.569,-2.447c0.333,-0.65 0.498,-1.178 0.694,-1.925Zm1.963,0.844l-0.227,-0.098l-0.361,-0.094c-0.191,0.733 -0.345,1.24 -0.662,1.857c-0.322,0.628 -0.816,1.379 -1.687,2.604l0.504,0.357c0.888,-1.247 1.395,-2.02 1.733,-2.678c0.336,-0.656 0.501,-1.189 0.7,-1.948Zm1.963,0.841l-0.074,-0.031l-0.52,-0.136c-0.191,0.735 -0.345,1.241 -0.663,1.86c-0.321,0.626 -1.22,1.554 -2.092,2.778l0.308,0.193c1.984,-2.787 1.71,-0.547 6.264,-0.769c1.404,-0.068 2.795,-0.332 4.161,-0.693c0.085,0.302 0.175,0.639 0.274,1.018l0.567,-0.274c-0.118,-0.453 -0.226,-0.847 -0.326,-1.194l-0.069,-0.3c-0.024,0.006 -0.39,-1.08 -0.445,-1.211c-0.287,-0.688 -0.591,-1.159 -1.051,-1.812l-0.059,0.027l-0.452,0.319c0.437,0.62 0.725,1.064 0.992,1.705c0.131,0.314 0.258,0.676 0.397,1.129c-1.322,0.351 -2.665,0.603 -4.017,0.67c-1.438,0.071 -2.889,-0.072 -4.337,-0.54c0.172,-0.282 0.314,-0.531 0.435,-0.766c0.34,-0.662 0.505,-1.2 0.707,-1.973Z" style="fill:#bed3e4;"/><path d="M33.057,19.868c0.826,-0.067 1.449,-0.848 1.391,-1.746c-0.058,-0.899 -0.775,-1.574 -1.602,-1.507c-0.826,0.065 -1.449,0.848 -1.391,1.746c0.058,0.899 0.775,1.573 1.602,1.507Z" style="fill:#fbc9a6;"/><path d="M23.747,24.327l0.551,-1.11l2.021,0.386l-0.326,1.404c0.518,0.377 0.795,0.839 0.67,1.226c-0.192,0.591 -1.252,0.779 -2.368,0.417c-1.115,-0.362 -1.865,-1.134 -1.674,-1.726c0.117,-0.358 0.552,-0.568 1.126,-0.597Z" style="fill:#fbc9a6;"/><path d="M22.763,8.037c4.913,-0.6 9.343,2.576 9.896,7.093c0.205,1.676 0.245,3.767 -0.536,5.179c-1.327,2.394 -2.278,4.131 -4.968,4.604c-4.561,0.802 -9.691,-3.323 -10.243,-7.84c-0.553,-4.517 0.938,-8.435 5.851,-9.036Z" style="fill:#fbc9a6;"/><path d="M26.183,14.446l-0.012,0.266c-0.047,0.904 -0.104,2.026 0.616,2.278l0.135,0.046c0.541,0.181 1.189,0.398 1.215,1.292c0.005,0.196 -0.051,0.357 -0.148,0.487c-0.163,0.22 -0.438,0.351 -0.711,0.424c-0.263,0.073 -0.526,0.092 -0.672,0.092c-0.088,0 -0.156,-0.017 -0.177,-0.036l0.119,-0.165c0.008,0.009 0.008,-0.015 0.051,-0.015c0.136,0.001 0.382,-0.018 0.628,-0.085c0.239,-0.064 0.477,-0.175 0.611,-0.354c0.069,-0.094 0.11,-0.209 0.106,-0.348c-0.021,-0.735 -0.593,-0.927 -1.072,-1.086l-0.135,-0.046c-0.872,-0.304 -0.81,-1.522 -0.759,-2.504l0.013,-0.265l0.192,0.019Z" style="fill:#e79f79;"/><path d="M21.954,16.336l-0.235,-0.539l2.255,-1.484l0.046,0.894l-2.066,1.129Z" style="fill:#976d30;"/><path d="M27.325,13.733l0.108,-0.736l2.065,0.396l-0.036,0.719l-2.137,-0.379Z" style="fill:#976d30;"/><path d="M23.612,18.756c0.366,-0.044 0.623,-0.416 0.572,-0.829c-0.05,-0.412 -0.389,-0.711 -0.755,-0.667c-0.367,0.045 -0.623,0.416 -0.573,0.83c0.051,0.413 0.389,0.712 0.756,0.666Z" style="fill:#5c3f24;"/><path d="M29.202,17.143c0.367,-0.044 0.623,-0.416 0.573,-0.829c-0.05,-0.414 -0.389,-0.713 -0.756,-0.668c-0.366,0.046 -0.623,0.417 -0.572,0.831c0.05,0.412 0.388,0.71 0.755,0.666Z" style="fill:#5c3f24;"/><path d="M25.058,20.818l4.002,-0.342c-0.244,3.651 -3.731,3.108 -4.002,0.342Z" style="fill:#5d262c;"/><path d="M28.331,22.5c-0.687,0.745 -1.707,0.706 -2.429,0.076c0.661,-0.672 1.67,-0.787 2.429,-0.076Z" style="fill:#f27d73;"/><path d="M25.346,20.793l3.28,-0.281c-0.708,1.661 -2.456,1.555 -3.28,0.281Z" style="fill:#fff6f0;"/><path d="M19.596,20.962c1.667,0.54 1.044,-6.194 -1.508,-8.756c-0.349,-0.35 1.846,1.059 2.996,-0.807c2.223,-3.609 0.261,1.866 4.439,-1.624c0.872,-0.728 0.503,0.753 2.496,0.428c2.621,-0.427 0.748,0.589 1.343,1.675c0.709,1.295 2.88,0.42 3.484,4.737c0.874,-1.092 3.363,-6.337 0.121,-6.519c-1.863,-0.105 -0.59,-1.144 -0.637,-3.006c-0.054,-2.189 -1.418,-5.193 -4.27,-4.427c-2.414,0.648 -0.385,0.789 -4.974,-0.776c-3.434,-1.171 -6.03,1.503 -6.381,4.033c-4.431,-0.671 -8.456,5.114 -3.805,8.262c-2.012,2.919 1.774,4.354 1.677,4.412c-1.661,0.99 0.138,3.128 3.09,1.945c0.889,-0.357 1.698,0.349 1.929,0.423Z" style="fill:#976d30;"/><path d="M11.356,9.064c-0.766,1.664 -0.529,3.669 1.505,5.137c0.093,-0.297 0.246,-0.611 0.475,-0.946c-1.736,-1.182 -2.249,-2.742 -1.98,-4.191Zm9.768,2.439c2.459,-3.446 0.254,1.865 4.404,-1.631c0.867,-0.73 0.498,0.752 2.475,0.424c2.602,-0.431 0.742,0.586 1.33,1.671c0.7,1.293 2.855,0.414 3.447,4.729c0.41,-0.516 1.179,-1.958 1.538,-3.356c-0.387,1.019 -0.896,1.926 -1.203,2.312c-0.592,-4.315 -2.747,-3.436 -3.447,-4.728c-0.588,-1.086 1.272,-2.103 -1.329,-1.672c-1.978,0.328 -1.609,-1.154 -2.476,-0.424c-4.15,3.495 -2.193,-1.979 -4.404,1.631c-1.145,1.868 -4.641,0.513 -4.295,0.862c0.759,0.768 2.429,2.326 3.96,0.182Zm-1.494,9.562c0.503,0.163 0.759,-0.382 0.854,-1.242c-0.143,0.173 -0.291,0.272 -0.519,0.198c-0.229,-0.074 -1.029,-0.779 -1.912,-0.421c-1.94,0.788 -3.375,0.119 -3.645,-0.712c-1.192,1.044 0.547,2.877 3.31,1.757c0.883,-0.359 1.683,0.346 1.912,0.42Zm-6.871,-6.368c-1.139,2.129 0.83,3.388 1.606,3.831c0.028,-0.314 0.225,-0.624 0.627,-0.865c0.079,-0.047 -2.423,-1.014 -2.233,-2.966Z" style="fill:#7e581e;"/><path d="M18.513,22.371c1.021,-0.125 1.753,-1.018 1.633,-1.996c-0.119,-0.978 -1.045,-1.67 -2.067,-1.545c-1.021,0.125 -1.752,1.018 -1.633,1.997c0.12,0.977 1.045,1.668 2.067,1.544Z" style="fill:#fbc9a6;"/></g></svg>