<?xml version="1.0" encoding="UTF-8" standalone="no"?><!DOCTYPE svg PUBLIC "-//W3C//DTD SVG 1.1//EN" "http://www.w3.org/Graphics/SVG/1.1/DTD/svg11.dtd"><svg width="100%" height="100%" viewBox="0 0 48 48" version="1.1" xmlns="http://www.w3.org/2000/svg" xmlns:xlink="http://www.w3.org/1999/xlink" xml:space="preserve" xmlns:serif="http://www.serif.com/" style="fill-rule:evenodd;clip-rule:evenodd;stroke-linejoin:round;stroke-miterlimit:2;"><g><path d="M33.024,18.887c0.852,-0.188 1.388,-1.093 1.198,-2.018c-0.191,-0.927 -1.036,-1.524 -1.888,-1.335c-0.853,0.189 -1.388,1.094 -1.198,2.019c0.19,0.927 1.035,1.524 1.888,1.334Z" style="fill:#fbc9a6;"/><path d="M31.926,17.641c2.774,-6.537 -2.735,-8.102 -7.072,-8.102c-0.136,0 -0.27,0.003 -0.403,0.008c3.66,0.835 6.542,3.853 7.475,8.094Z" style="fill:#5c3f24;"/><path d="M35.142,26.592l-1.629,-2.957l10.302,-5.783c-0.622,-1.426 1.435,-4.205 1.421,-2.33c-0.011,1.719 -0.291,0.845 2.338,-0.152c0.02,-0.007 1.188,0.305 -0.684,1.178c-2.034,0.947 2.264,-0.882 1.73,0.576c-0.003,0.008 -1.885,0.569 -2.082,0.617c-0.288,0.07 0.128,0.133 0.551,0.089c0.132,0.178 1.772,-0.403 1.409,0.591c-0.085,0.23 -2.983,-0.057 -0.74,0.555c0.085,0.022 0.778,0.684 -0.565,0.622c-0.247,-0.012 -2.913,0.424 -2.988,0.466l-6.409,5.071l-2.654,1.457Z" style="fill:#fbc9a6;"/><path d="M24.113,25.852l3.856,-0.72l6.17,-2.146l1.432,3.666l-3.855,2.048c1.688,4.741 2.623,10.394 2.653,14.333c-3.311,-1.454 -7.277,-1.483 -12.763,0.563c0.076,-6.169 -0.236,-8.466 -0.359,-12.861l-5.551,-0.361l0.286,-4.237l8.131,-0.285Z" style="fill:#d06271;"/><path d="M32.78,32.163c0.306,1.16 0.57,2.339 0.791,3.5c-1.318,-0.298 -2.7,-0.459 -4.125,-0.459c-2.877,0 -5.579,0.648 -7.924,1.783c-0.049,-1.201 -0.11,-2.294 -0.166,-3.453c2.316,-1.098 4.974,-1.722 7.799,-1.722c1.246,0 2.459,0.121 3.625,0.351Z" style="fill:#f60;"/><path d="M25.385,25.901l-0.147,-1.294l2.003,-0.811l0.511,1.426c0.671,0.036 1.179,0.288 1.289,0.7c0.167,0.631 -0.661,1.399 -1.852,1.715c-1.189,0.317 -2.29,0.063 -2.458,-0.568c-0.102,-0.383 0.164,-0.817 0.654,-1.168Z" style="fill:#fbc9a6;"/><path d="M27.871,26.008c-0.815,0.076 -1.62,0.046 -2.397,-0.077l-0.033,-0.302l2.001,-0.811l0.429,1.19Z" style="fill:#e79f79;"/><path d="M20.216,9.134c5.022,-1.336 10.089,1.324 11.318,5.943c0.457,1.713 0.802,3.881 0.193,5.462c-1.032,2.681 -1.808,4.041 -4.924,5.026c-6.494,2.051 -11.423,-1.477 -12.651,-6.095c-1.23,-4.618 1.041,-9 6.064,-10.336Z" style="fill:#fbc9a6;"/><path d="M25.251,16.611l0.017,0.249c0.053,0.851 0.12,1.906 0.892,2.024l0.145,0.021c0.581,0.08 1.275,0.179 1.401,1.006c0.029,0.182 -0.013,0.341 -0.098,0.478c-0.143,0.232 -0.414,0.398 -0.687,0.51c-0.265,0.11 -0.535,0.171 -0.686,0.194c-0.091,0.014 -0.163,0.011 -0.186,-0.003l0.104,-0.173c0.01,0.005 0.006,-0.016 0.052,-0.022c0.14,-0.022 0.392,-0.081 0.64,-0.181c0.239,-0.1 0.474,-0.241 0.592,-0.431c0.061,-0.098 0.091,-0.211 0.071,-0.34c-0.105,-0.682 -0.718,-0.768 -1.23,-0.839l-0.146,-0.02c-0.937,-0.142 -1.009,-1.287 -1.066,-2.211l-0.017,-0.249l0.202,-0.013Z" style="fill:#e79f79;"/><path d="M23.567,10.632c2.2,-0.297 8.989,0.685 9.845,3.658c0.238,-3.913 -2.803,-7.309 -10.453,-7.397c-0.471,-0.005 -0.924,0.008 -1.357,0.038c0.082,-0.07 0.16,-0.146 0.238,-0.231c0.571,-0.618 0.501,-0.963 0.791,-1.737c0.01,-0.029 0.195,-0.633 0.107,-0.551c-0.472,0.439 -1.05,0.652 -1.343,1.338c-0.182,0.425 -0.106,0.569 -0.429,1.006c-0.003,0.004 -0.05,-0.57 -0.176,-0.838c-0.179,-0.38 -0.271,-0.647 -0.6,-0.922c-0.054,-0.045 0.014,1.018 0.073,1.242c0.034,0.125 0.109,0.523 0.103,0.552c0.039,-0.169 -0.91,-0.758 -1.06,-0.841c-0.419,-0.234 -0.525,-0.236 -0.953,-0.349c-0.082,-0.021 0.796,0.92 0.983,1.131c0.231,0.26 0.319,0.287 0.584,0.418l-0.036,0.006c-0.215,-0.028 -0.949,-0.154 -1.219,-0.256c-0.332,-0.126 -0.538,-0.138 -0.836,-0.309c-0.266,-0.154 -0.111,0.06 -0.001,0.249c0.187,0.32 0.418,0.536 0.679,0.672c-9.801,3.222 -5.924,17.944 -0.456,17.426c-0.916,-0.151 -0.972,-4.916 0.521,-6.031c6.144,-4.586 4.912,-8.262 4.995,-8.274Z" style="fill:#5c3f24;"/><path d="M20.419,7.062l-0.131,0.019c2.077,2.969 -0.572,5.435 -3.169,7.849c-1.311,1.22 -2.611,2.427 -3.292,3.687c-0.419,0.774 -0.606,1.564 -0.425,2.384c0.259,0.625 0.566,1.201 0.912,1.708c0.497,0.582 1.202,1.182 2.154,1.803l0.059,-0.109c-3.255,-2.12 -3.545,-3.968 -2.597,-5.72c0.672,-1.241 1.964,-2.443 3.268,-3.656c2.625,-2.44 5.303,-4.932 3.221,-7.965Zm0.734,-0.091c-0.07,0.008 -0.143,0.012 -0.213,0.02c2.316,3.045 -0.11,5.764 -2.502,8.443c-1.046,1.172 -2.085,2.335 -2.727,3.52c-1.033,1.909 -1.039,3.861 1.593,5.957c0.078,0.013 0.155,0.022 0.233,0.028c-2.726,-2.092 -2.746,-4.028 -1.723,-5.918c0.634,-1.172 1.669,-2.331 2.711,-3.497c2.311,-2.589 4.656,-5.216 2.817,-8.162c2.494,2.959 0.332,5.745 -1.82,8.514c-0.8,1.032 -1.601,2.061 -2.162,3.098c-0.93,1.72 -1.212,3.457 0.21,5.249c-0.025,-0.091 -0.047,-0.189 -0.066,-0.293c-1.196,-1.669 -0.908,-3.286 -0.041,-4.888c0.558,-1.029 1.355,-2.054 2.152,-3.082c2.26,-2.91 4.532,-5.837 1.538,-8.989Z" style="fill:#875c32;"/><path d="M19.763,18.712l-0.322,-0.528l2.131,-1.868l0.175,0.921l-1.984,1.475Z" style="fill:#5c3f24;"/><path d="M26.666,14.821l-0.179,-0.76l2.169,-0.411l0.243,0.715l-2.233,0.456Z" style="fill:#5c3f24;"/><path d="M22.651,20.158c0.375,-0.1 0.588,-0.522 0.476,-0.945c-0.112,-0.422 -0.508,-0.684 -0.882,-0.584c-0.376,0.099 -0.588,0.522 -0.476,0.944c0.112,0.423 0.508,0.684 0.882,0.585Z" style="fill:#5c3f24;"/><path d="M28.231,17.67c0.375,-0.1 0.588,-0.523 0.476,-0.945c-0.112,-0.422 -0.508,-0.684 -0.882,-0.584c-0.375,0.099 -0.589,0.522 -0.476,0.944c0.112,0.423 0.508,0.684 0.882,0.585Z" style="fill:#5c3f24;"/><path d="M24.839,21.937l3.765,0.064c-0.576,3.383 -3.776,2.543 -3.765,-0.064Z" style="fill:#5d262c;"/><path d="M27.731,23.821c-0.712,0.627 -1.659,0.493 -2.273,-0.162c0.68,-0.564 1.632,-0.575 2.273,0.162Z" style="fill:#f27d73;"/><path d="M25.109,21.943l3.087,0.051c-0.819,1.483 -2.439,1.216 -3.087,-0.051Z" style="fill:#fff6f0;"/><path d="M15.719,30.028l0.228,-3.368l-11.78,-0.89c-0.022,-0.844 -0.831,-1.476 -1.44,-1.819c-0.515,-0.29 -0.886,-0.44 -0.518,0.337c0.244,0.514 0.481,0.702 0.47,0.805c-0.021,0.208 -1.095,-0.122 -2.968,0.015c-0.021,0.001 -0.947,0.777 1.117,0.777c2.244,0 -2.423,0.157 -1.324,1.255c0.006,0.005 1.95,-0.282 2.148,-0.321c0.291,-0.058 -0.06,0.174 -0.462,0.313c-0.044,0.217 -1.776,0.385 -1.027,1.131c0.143,0.144 2.146,-0.867 1.691,-0.328c-0.089,0.104 -0.494,0.272 -0.786,0.518c-0.068,0.057 -0.589,0.606 0.774,0.326c0.147,-0.029 0.928,-0.152 1.722,-0.373c0.513,-0.143 1.151,-0.469 1.184,-0.466l7.95,1.888l3.021,0.2Z" style="fill:#fbc9a6;"/><path d="M17.753,26.05c1.044,-0.279 1.676,-1.314 1.41,-2.313c-0.266,-1 -1.328,-1.585 -2.373,-1.308c-1.045,0.279 -1.676,1.314 -1.41,2.313c0.266,1.001 1.328,1.585 2.373,1.308Z" style="fill:#fbc9a6;"/></g></svg>